M48
; DRILL file {KiCad (5.1.2)-1} date 26/03/2020 09:16:34 p.m.
; FORMAT={-:-/ absolute / inch / decimal}
; #@! TF.CreationDate,2020-03-26T21:16:34-03:00
; #@! TF.GenerationSoftware,Kicad,Pcbnew,(5.1.2)-1
; #@! TF.FileFunction,Plated,1,2,PTH
FMAT,2
INCH
T1C0.0315
T2C0.0315
T3C0.0354
T4C0.0400
T5C0.0433
T6C0.0472
T7C0.0511
T8C0.0512
%
G90
G05
T1
X7.1654Y-2.8307
X7.2835Y-2.8307
X4.1906Y-2.4606
X4.1906Y-3.0606
X4.2906Y-2.4606
X4.2906Y-3.0606
X4.3906Y-2.4606
X4.3906Y-3.0606
X4.4906Y-2.4606
X4.4906Y-3.0606
X4.5906Y-2.4606
X4.5906Y-3.0606
X4.6906Y-2.4606
X4.6906Y-3.0606
X4.7906Y-2.4606
X4.7906Y-3.0606
X4.8906Y-2.4606
X4.8906Y-3.0606
X4.9906Y-2.4606
X4.9906Y-3.0606
X5.0906Y-2.4606
X5.0906Y-3.0606
X5.1906Y-2.4606
X5.1906Y-3.0606
X5.2906Y-2.4606
X5.2906Y-3.0606
X5.3906Y-2.4606
X5.3906Y-3.0606
X5.4906Y-2.4606
X5.4906Y-3.0606
X5.5906Y-2.4606
X5.5906Y-3.0606
X7.7165Y-2.7362
X7.815Y-2.7362
X5.2299Y-2.1063
X5.6299Y-2.1063
X7.5689Y-2.0705
X7.5689Y-2.4705
X7.7854Y-2.4508
X7.7854Y-2.5492
X3.9646Y-2.2756
X4.3646Y-2.2756
X5.0528Y-2.2638
X5.4528Y-2.2638
X5.9882Y-2.6969
X5.9882Y-2.7756
X5.9882Y-2.8543
X6.0669Y-2.6969
X6.0669Y-2.7756
X6.0669Y-2.8543
X4.4291Y-2.126
X4.8291Y-2.126
X6.5291Y-3.0709
X6.9291Y-3.0709
T2
X8.0315Y-3.0709
X8.2283Y-3.0709
X7.4016Y-2.1654
X7.4016Y-2.3031
X7.4016Y-3.3465
X7.5787Y-3.3465
X4.7047Y-3.3465
X4.8819Y-3.3465
X6.5354Y-3.3465
X6.7323Y-3.3465
X7.9134Y-3.3465
X8.0709Y-3.3465
X5.6496Y-3.3661
X5.8268Y-3.3661
X4.6654Y-2.6378
X4.8425Y-2.7559
X4.252Y-3.3465
X4.4488Y-3.3465
T3
X7.1736Y-1.7224
X7.2736Y-1.7224
X4.5276Y-1.7323
X4.6276Y-1.7323
X3.5118Y-2.2008
X3.6118Y-2.2008
X6.2661Y-2.1811
X6.3661Y-2.1811
T4
X6.67Y-2.85
X6.77Y-2.85
X8.2971Y-3.2858
X8.3071Y-3.1858
X8.3071Y-3.3858
T5
X4.9213Y-1.5748
X4.9213Y-1.8307
X5.0984Y-1.5748
X5.0984Y-1.8307
X7.5787Y-1.5748
X7.5787Y-1.8307
X7.7559Y-1.5748
X7.7559Y-1.8307
X6.6929Y-1.5748
X6.6929Y-1.8307
X6.8701Y-1.5748
X6.8701Y-1.8307
X4.0354Y-1.5748
X4.0354Y-1.8307
X4.2126Y-1.5748
X4.2126Y-1.8307
X5.8071Y-1.5748
X5.8071Y-1.8307
X5.9843Y-1.5748
X5.9843Y-1.8307
T6
X6.0276Y-2.5866
X6.0276Y-2.9646
T7
X8.0315Y-2.4568
X8.0315Y-2.5591
X8.0315Y-2.7559
X8.0315Y-2.8582
X8.2283Y-2.6575
T8
X4.8228Y-3.5433
X5.0197Y-3.5433
X5.2165Y-3.5433
X5.7087Y-3.5433
X5.9055Y-3.5433
X6.1024Y-3.5433
X7.4803Y-3.5433
X7.6772Y-3.5433
X7.874Y-3.5433
X3.937Y-3.5433
X4.1339Y-3.5433
X4.3307Y-3.5433
X6.5945Y-3.5433
X6.7913Y-3.5433
X6.9882Y-3.5433
T0
M30
