G04 #@! TF.GenerationSoftware,KiCad,Pcbnew,(5.1.2)-1*
G04 #@! TF.CreationDate,2020-03-26T21:16:31-03:00*
G04 #@! TF.ProjectId,MintySynth,4d696e74-7953-4796-9e74-682e6b696361,rev?*
G04 #@! TF.SameCoordinates,Original*
G04 #@! TF.FileFunction,Copper,L2,Bot*
G04 #@! TF.FilePolarity,Positive*
%FSLAX46Y46*%
G04 Gerber Fmt 4.6, Leading zero omitted, Abs format (unit mm)*
G04 Created by KiCad (PCBNEW (5.1.2)-1) date 2020-03-26 21:16:31*
%MOMM*%
%LPD*%
G04 APERTURE LIST*
%ADD10C,0.500000*%
%ADD11C,0.050000*%
%ADD12C,0.625000*%
%ADD13C,0.800000*%
%ADD14C,1.000000*%
%ADD15C,0.381000*%
%ADD16R,1.800000X1.800000*%
%ADD17C,1.800000*%
%ADD18C,1.600000*%
%ADD19O,1.600000X1.600000*%
%ADD20C,1.400000*%
%ADD21C,2.340000*%
%ADD22R,1.600000X1.600000*%
%ADD23C,1.879600*%
%ADD24C,2.181860*%
%ADD25C,1.300000*%
%ADD26C,2.000000*%
%ADD27C,0.250000*%
%ADD28C,0.254000*%
G04 APERTURE END LIST*
D10*
X173413282Y-65170718D02*
G75*
G03X173413282Y-65170718I-2683282J0D01*
G01*
D11*
X82800000Y-113000000D02*
X82800000Y-35800000D01*
X86000000Y-113000000D02*
X82800000Y-113000000D01*
D10*
X94204761Y-62028571D02*
X92204761Y-62028571D01*
X93633333Y-62695238D01*
X92204761Y-63361904D01*
X94204761Y-63361904D01*
X94204761Y-64314285D02*
X92871428Y-64314285D01*
X92204761Y-64314285D02*
X92300000Y-64219047D01*
X92395238Y-64314285D01*
X92300000Y-64409523D01*
X92204761Y-64314285D01*
X92395238Y-64314285D01*
X92871428Y-65266666D02*
X94204761Y-65266666D01*
X93061904Y-65266666D02*
X92966666Y-65361904D01*
X92871428Y-65552380D01*
X92871428Y-65838095D01*
X92966666Y-66028571D01*
X93157142Y-66123809D01*
X94204761Y-66123809D01*
X92871428Y-66790476D02*
X92871428Y-67552380D01*
X92204761Y-67076190D02*
X93919047Y-67076190D01*
X94109523Y-67171428D01*
X94204761Y-67361904D01*
X94204761Y-67552380D01*
X92871428Y-68028571D02*
X94204761Y-68504761D01*
X92871428Y-68980952D02*
X94204761Y-68504761D01*
X94680952Y-68314285D01*
X94776190Y-68219047D01*
X94871428Y-68028571D01*
X94109523Y-69647619D02*
X94204761Y-69933333D01*
X94204761Y-70409523D01*
X94109523Y-70599999D01*
X94014285Y-70695238D01*
X93823809Y-70790476D01*
X93633333Y-70790476D01*
X93442857Y-70695238D01*
X93347619Y-70599999D01*
X93252380Y-70409523D01*
X93157142Y-70028571D01*
X93061904Y-69838095D01*
X92966666Y-69742857D01*
X92776190Y-69647619D01*
X92585714Y-69647619D01*
X92395238Y-69742857D01*
X92300000Y-69838095D01*
X92204761Y-70028571D01*
X92204761Y-70504761D01*
X92300000Y-70790476D01*
X92871428Y-71457142D02*
X94204761Y-71933333D01*
X92871428Y-72409523D02*
X94204761Y-71933333D01*
X94680952Y-71742857D01*
X94776190Y-71647619D01*
X94871428Y-71457142D01*
X92871428Y-73171428D02*
X94204761Y-73171428D01*
X93061904Y-73171428D02*
X92966666Y-73266666D01*
X92871428Y-73457142D01*
X92871428Y-73742857D01*
X92966666Y-73933333D01*
X93157142Y-74028571D01*
X94204761Y-74028571D01*
X92871428Y-74695238D02*
X92871428Y-75457142D01*
X92204761Y-74980952D02*
X93919047Y-74980952D01*
X94109523Y-75076190D01*
X94204761Y-75266666D01*
X94204761Y-75457142D01*
X94204761Y-76123809D02*
X92204761Y-76123809D01*
X94204761Y-76980952D02*
X93157142Y-76980952D01*
X92966666Y-76885714D01*
X92871428Y-76695238D01*
X92871428Y-76409523D01*
X92966666Y-76219047D01*
X93061904Y-76123809D01*
X92871428Y-79266666D02*
X94204761Y-79742857D01*
X92871428Y-80219047D01*
X94109523Y-81742857D02*
X94204761Y-81552380D01*
X94204761Y-81171428D01*
X94109523Y-80980952D01*
X93919047Y-80885714D01*
X93157142Y-80885714D01*
X92966666Y-80980952D01*
X92871428Y-81171428D01*
X92871428Y-81552380D01*
X92966666Y-81742857D01*
X93157142Y-81838095D01*
X93347619Y-81838095D01*
X93538095Y-80885714D01*
X94204761Y-82695238D02*
X92871428Y-82695238D01*
X93252380Y-82695238D02*
X93061904Y-82790476D01*
X92966666Y-82885714D01*
X92871428Y-83076190D01*
X92871428Y-83266666D01*
X94109523Y-83838095D02*
X94204761Y-84028571D01*
X94204761Y-84409523D01*
X94109523Y-84599999D01*
X93919047Y-84695238D01*
X93823809Y-84695238D01*
X93633333Y-84599999D01*
X93538095Y-84409523D01*
X93538095Y-84123809D01*
X93442857Y-83933333D01*
X93252380Y-83838095D01*
X93157142Y-83838095D01*
X92966666Y-83933333D01*
X92871428Y-84123809D01*
X92871428Y-84409523D01*
X92966666Y-84599999D01*
X94204761Y-85552380D02*
X92871428Y-85552380D01*
X92204761Y-85552380D02*
X92300000Y-85457142D01*
X92395238Y-85552380D01*
X92300000Y-85647619D01*
X92204761Y-85552380D01*
X92395238Y-85552380D01*
X94204761Y-86790476D02*
X94109523Y-86599999D01*
X94014285Y-86504761D01*
X93823809Y-86409523D01*
X93252380Y-86409523D01*
X93061904Y-86504761D01*
X92966666Y-86599999D01*
X92871428Y-86790476D01*
X92871428Y-87076190D01*
X92966666Y-87266666D01*
X93061904Y-87361904D01*
X93252380Y-87457142D01*
X93823809Y-87457142D01*
X94014285Y-87361904D01*
X94109523Y-87266666D01*
X94204761Y-87076190D01*
X94204761Y-86790476D01*
X92871428Y-88314285D02*
X94204761Y-88314285D01*
X93061904Y-88314285D02*
X92966666Y-88409523D01*
X92871428Y-88599999D01*
X92871428Y-88885714D01*
X92966666Y-89076190D01*
X93157142Y-89171428D01*
X94204761Y-89171428D01*
D12*
X89121428Y-62873809D02*
X89121428Y-62040476D01*
X90430952Y-62040476D02*
X87930952Y-62040476D01*
X87930952Y-63230952D01*
X89716666Y-64064285D02*
X89716666Y-65254761D01*
X90430952Y-63826190D02*
X87930952Y-64659523D01*
X90430952Y-65492857D01*
X89121428Y-67159523D02*
X89240476Y-67516666D01*
X89359523Y-67635714D01*
X89597619Y-67754761D01*
X89954761Y-67754761D01*
X90192857Y-67635714D01*
X90311904Y-67516666D01*
X90430952Y-67278571D01*
X90430952Y-66326190D01*
X87930952Y-66326190D01*
X87930952Y-67159523D01*
X88050000Y-67397619D01*
X88169047Y-67516666D01*
X88407142Y-67635714D01*
X88645238Y-67635714D01*
X88883333Y-67516666D01*
X89002380Y-67397619D01*
X89121428Y-67159523D01*
X89121428Y-66326190D01*
X90430952Y-70254761D02*
X89240476Y-69421428D01*
X90430952Y-68826190D02*
X87930952Y-68826190D01*
X87930952Y-69778571D01*
X88050000Y-70016666D01*
X88169047Y-70135714D01*
X88407142Y-70254761D01*
X88764285Y-70254761D01*
X89002380Y-70135714D01*
X89121428Y-70016666D01*
X89240476Y-69778571D01*
X89240476Y-68826190D01*
X90430952Y-71326190D02*
X87930952Y-71326190D01*
X90192857Y-73945238D02*
X90311904Y-73826190D01*
X90430952Y-73469047D01*
X90430952Y-73230952D01*
X90311904Y-72873809D01*
X90073809Y-72635714D01*
X89835714Y-72516666D01*
X89359523Y-72397619D01*
X89002380Y-72397619D01*
X88526190Y-72516666D01*
X88288095Y-72635714D01*
X88050000Y-72873809D01*
X87930952Y-73230952D01*
X87930952Y-73469047D01*
X88050000Y-73826190D01*
X88169047Y-73945238D01*
X89716666Y-74897619D02*
X89716666Y-76088095D01*
X90430952Y-74659523D02*
X87930952Y-75492857D01*
X90430952Y-76326190D01*
X90430952Y-79064285D02*
X87930952Y-79064285D01*
X89716666Y-79897619D01*
X87930952Y-80730952D01*
X90430952Y-80730952D01*
X89716666Y-81802380D02*
X89716666Y-82992857D01*
X90430952Y-81564285D02*
X87930952Y-82397619D01*
X90430952Y-83230952D01*
X90430952Y-85492857D02*
X89240476Y-84659523D01*
X90430952Y-84064285D02*
X87930952Y-84064285D01*
X87930952Y-85016666D01*
X88050000Y-85254761D01*
X88169047Y-85373809D01*
X88407142Y-85492857D01*
X88764285Y-85492857D01*
X89002380Y-85373809D01*
X89121428Y-85254761D01*
X89240476Y-85016666D01*
X89240476Y-84064285D01*
X90192857Y-87992857D02*
X90311904Y-87873809D01*
X90430952Y-87516666D01*
X90430952Y-87278571D01*
X90311904Y-86921428D01*
X90073809Y-86683333D01*
X89835714Y-86564285D01*
X89359523Y-86445238D01*
X89002380Y-86445238D01*
X88526190Y-86564285D01*
X88288095Y-86683333D01*
X88050000Y-86921428D01*
X87930952Y-87278571D01*
X87930952Y-87516666D01*
X88050000Y-87873809D01*
X88169047Y-87992857D01*
X90430952Y-89064285D02*
X87930952Y-89064285D01*
X89716666Y-90135714D02*
X89716666Y-91326190D01*
X90430952Y-89897619D02*
X87930952Y-90730952D01*
X90430952Y-91564285D01*
X90430952Y-92397619D02*
X87930952Y-92397619D01*
X90430952Y-93826190D01*
X87930952Y-93826190D01*
X89716666Y-94897619D02*
X89716666Y-96088095D01*
X90430952Y-94659523D02*
X87930952Y-95492857D01*
X90430952Y-96326190D01*
X90192857Y-97159523D02*
X90311904Y-97278571D01*
X90430952Y-97159523D01*
X90311904Y-97040476D01*
X90192857Y-97159523D01*
X90430952Y-97159523D01*
X89478571Y-97159523D02*
X88050000Y-97040476D01*
X87930952Y-97159523D01*
X88050000Y-97278571D01*
X89478571Y-97159523D01*
X87930952Y-97159523D01*
D13*
X212250000Y-41000000D02*
G75*
G03X212250000Y-41000000I-3201562J0D01*
G01*
X94250000Y-41000000D02*
G75*
G03X94250000Y-41000000I-3201562J0D01*
G01*
X94250000Y-108000000D02*
G75*
G03X94250000Y-108000000I-3201562J0D01*
G01*
X212201562Y-108000000D02*
G75*
G03X212201562Y-108000000I-3201562J0D01*
G01*
D14*
X200500000Y-102500000D02*
G75*
G03X200500000Y-102500000I-5436221J0D01*
G01*
X110372442Y-102500000D02*
G75*
G03X110372442Y-102500000I-5436221J0D01*
G01*
X132872442Y-102500000D02*
G75*
G03X132872442Y-102500000I-5436221J0D01*
G01*
X155372442Y-102500000D02*
G75*
G03X155372442Y-102500000I-5436221J0D01*
G01*
X177936221Y-102550000D02*
G75*
G03X177936221Y-102550000I-5436221J0D01*
G01*
D11*
X214000000Y-35800000D02*
X82800000Y-35800000D01*
X214000000Y-113000000D02*
X214000000Y-35800000D01*
X86000000Y-113000000D02*
X214000000Y-113000000D01*
D15*
X205232000Y-53594000D02*
X205232000Y-53975000D01*
X205232000Y-53975000D02*
X205105000Y-53975000D01*
X206121000Y-52705000D02*
X205232000Y-53594000D01*
X205232000Y-53594000D02*
X204978000Y-53594000D01*
X210820000Y-49530000D02*
X211201000Y-49657000D01*
X210820000Y-49530000D02*
X210820000Y-49149000D01*
X210312000Y-49911000D02*
X210820000Y-49530000D01*
X210566000Y-53594000D02*
X210566000Y-54102000D01*
X210566000Y-53594000D02*
X210947000Y-53594000D01*
X209550000Y-52705000D02*
X210566000Y-53594000D01*
X204978000Y-49403000D02*
X204470000Y-49276000D01*
X204978000Y-49403000D02*
X204978000Y-48895000D01*
X205613000Y-49911000D02*
X204978000Y-49403000D01*
X207772000Y-52832000D02*
X207772000Y-53086000D01*
X208407000Y-52705000D02*
X207264000Y-52705000D01*
X207264000Y-52705000D02*
X207264000Y-53213000D01*
X207264000Y-53213000D02*
X208407000Y-53213000D01*
X208407000Y-53213000D02*
X208407000Y-52705000D01*
X209198981Y-51181000D02*
G75*
G03X209198981Y-51181000I-283981J0D01*
G01*
X207166981Y-51181000D02*
G75*
G03X207166981Y-51181000I-283981J0D01*
G01*
X207899000Y-51181000D02*
X207645000Y-51943000D01*
X207645000Y-51943000D02*
X208153000Y-51943000D01*
X208153000Y-51943000D02*
X207899000Y-51181000D01*
X208915000Y-53467000D02*
X208788000Y-53721000D01*
X208788000Y-53721000D02*
X208534000Y-53975000D01*
X208534000Y-53975000D02*
X208153000Y-54102000D01*
X206756000Y-52324000D02*
X206756000Y-53086000D01*
X206756000Y-53086000D02*
X206756000Y-53467000D01*
X206756000Y-53467000D02*
X206883000Y-53848000D01*
X206883000Y-53848000D02*
X207264000Y-53975000D01*
X207264000Y-53975000D02*
X207772000Y-54102000D01*
X207772000Y-54102000D02*
X208153000Y-54102000D01*
X208915000Y-53467000D02*
X208915000Y-53086000D01*
X208915000Y-53086000D02*
X208915000Y-52324000D01*
X210439000Y-51562000D02*
X210312000Y-51816000D01*
X210312000Y-51816000D02*
X210185000Y-52070000D01*
X210185000Y-52070000D02*
X209677000Y-52197000D01*
X209677000Y-52197000D02*
X209042000Y-52324000D01*
X209042000Y-52324000D02*
X208661000Y-52324000D01*
X210439000Y-51562000D02*
X210439000Y-51308000D01*
X210439000Y-51308000D02*
X210312000Y-50800000D01*
X210312000Y-50800000D02*
X210058000Y-50165000D01*
X210058000Y-50165000D02*
X209550000Y-49657000D01*
X209550000Y-49657000D02*
X208915000Y-49276000D01*
X208915000Y-49276000D02*
X208280000Y-49022000D01*
X208280000Y-49022000D02*
X207772000Y-49022000D01*
X207772000Y-49022000D02*
X207137000Y-49149000D01*
X207137000Y-49149000D02*
X206502000Y-49403000D01*
X206502000Y-49403000D02*
X205994000Y-49911000D01*
X205994000Y-49911000D02*
X205740000Y-50292000D01*
X205740000Y-50292000D02*
X205486000Y-50800000D01*
X205486000Y-50800000D02*
X205359000Y-51181000D01*
X205359000Y-51181000D02*
X205359000Y-51562000D01*
X205359000Y-51562000D02*
X205486000Y-51943000D01*
X205486000Y-51943000D02*
X205740000Y-52070000D01*
X205740000Y-52070000D02*
X206248000Y-52324000D01*
X206248000Y-52324000D02*
X206629000Y-52324000D01*
X206629000Y-52324000D02*
X207010000Y-52324000D01*
D16*
X89200000Y-55900000D03*
D17*
X91740000Y-55900000D03*
D18*
X100700000Y-57800000D03*
D19*
X110860000Y-57800000D03*
D16*
X161700000Y-55400000D03*
D17*
X159160000Y-55400000D03*
D20*
X201000000Y-85000000D03*
X205000000Y-85000000D03*
X209000000Y-78000000D03*
X204000000Y-78000000D03*
X118500000Y-67000000D03*
X123000000Y-70000000D03*
X192500000Y-85000000D03*
X188000000Y-85000000D03*
X108000000Y-85000000D03*
X113000000Y-85000000D03*
X124000000Y-85000000D03*
X119500000Y-85000000D03*
X166000000Y-85000000D03*
X171000000Y-85000000D03*
X143500000Y-85500000D03*
X148000000Y-85500000D03*
D21*
X190000000Y-90000000D03*
X195000000Y-90000000D03*
X200000000Y-90000000D03*
D19*
X106440000Y-77740000D03*
X106440000Y-62500000D03*
X142000000Y-77740000D03*
X108980000Y-62500000D03*
X139460000Y-77740000D03*
X111520000Y-62500000D03*
X136920000Y-77740000D03*
X114060000Y-62500000D03*
X134380000Y-77740000D03*
X116600000Y-62500000D03*
X131840000Y-77740000D03*
X119140000Y-62500000D03*
X129300000Y-77740000D03*
X121680000Y-62500000D03*
X126760000Y-77740000D03*
X124220000Y-62500000D03*
X124220000Y-77740000D03*
X126760000Y-62500000D03*
X121680000Y-77740000D03*
X129300000Y-62500000D03*
X119140000Y-77740000D03*
X131840000Y-62500000D03*
X116600000Y-77740000D03*
X134380000Y-62500000D03*
X114060000Y-77740000D03*
X136920000Y-62500000D03*
X111520000Y-77740000D03*
X139460000Y-62500000D03*
X108980000Y-77740000D03*
D22*
X142000000Y-62500000D03*
D18*
X197750000Y-62250000D03*
X197750000Y-64750000D03*
X198500000Y-69500000D03*
D22*
X196000000Y-69500000D03*
D17*
X117540000Y-44000000D03*
D16*
X115000000Y-44000000D03*
X184750000Y-43750000D03*
D17*
X182210000Y-43750000D03*
D23*
X211000000Y-86000000D03*
X210746000Y-83460000D03*
X211000000Y-80920000D03*
X171958000Y-72390000D03*
X169418000Y-72390000D03*
D24*
X204001280Y-65000640D03*
X204001280Y-62402220D03*
X209000000Y-67500000D03*
X204001280Y-69999360D03*
X204001280Y-72597780D03*
D19*
X122660000Y-54000000D03*
D18*
X112500000Y-54000000D03*
X143000000Y-53500000D03*
D19*
X132840000Y-53500000D03*
D18*
X192250000Y-62750000D03*
D19*
X192250000Y-52590000D03*
X165840000Y-78000000D03*
D18*
X176000000Y-78000000D03*
X182000000Y-71900000D03*
X185000000Y-71900000D03*
D21*
X100000000Y-90000000D03*
X105000000Y-90000000D03*
X110000000Y-90000000D03*
X132500000Y-90000000D03*
X127500000Y-90000000D03*
X122500000Y-90000000D03*
X145000000Y-90000000D03*
X150000000Y-90000000D03*
X155000000Y-90000000D03*
X177500000Y-90000000D03*
X172500000Y-90000000D03*
X167500000Y-90000000D03*
D25*
X152100000Y-72500000D03*
X152100000Y-70500000D03*
X152100000Y-68500000D03*
X154100000Y-72500000D03*
X154100000Y-70500000D03*
X154100000Y-68500000D03*
D17*
X153100000Y-75300000D03*
X153100000Y-65700000D03*
D26*
X102500000Y-40000000D03*
X107000000Y-40000000D03*
X102500000Y-46500000D03*
X107000000Y-46500000D03*
X129500000Y-46500000D03*
X125000000Y-46500000D03*
X129500000Y-40000000D03*
X125000000Y-40000000D03*
X152000000Y-46500000D03*
X147500000Y-46500000D03*
X152000000Y-40000000D03*
X147500000Y-40000000D03*
X174500000Y-46500000D03*
X170000000Y-46500000D03*
X174500000Y-40000000D03*
X170000000Y-40000000D03*
X192500000Y-40000000D03*
X197000000Y-40000000D03*
X192500000Y-46500000D03*
X197000000Y-46500000D03*
D20*
X188000000Y-55000000D03*
X188000000Y-58500000D03*
D18*
X138500000Y-57500000D03*
D19*
X128340000Y-57500000D03*
D14*
X106440000Y-78871370D02*
X106553000Y-78984370D01*
X106440000Y-78871370D02*
X106440000Y-77740000D01*
X106440000Y-80504000D02*
X106440000Y-77740000D01*
X107300000Y-57800000D02*
X110860000Y-57800000D01*
X106426000Y-62486000D02*
X106426000Y-58674000D01*
X106440000Y-62500000D02*
X106426000Y-62486000D01*
X106426000Y-58674000D02*
X107300000Y-57800000D01*
X141800000Y-77540000D02*
X142000000Y-77740000D01*
X141800000Y-71600000D02*
X141800000Y-77540000D01*
X145000000Y-68400000D02*
X141800000Y-71600000D01*
X152100000Y-68500000D02*
X152000000Y-68400000D01*
X152100000Y-68500000D02*
X152100000Y-70500000D01*
X152100000Y-70500000D02*
X150637000Y-70500000D01*
X150188000Y-70051000D02*
X150188000Y-68400000D01*
X150637000Y-70500000D02*
X150188000Y-70051000D01*
X152000000Y-68400000D02*
X150188000Y-68400000D01*
X150188000Y-68400000D02*
X145000000Y-68400000D01*
X151450001Y-69686999D02*
X150637000Y-70500000D01*
X151450001Y-69149999D02*
X151450001Y-69686999D01*
X152100000Y-68500000D02*
X151450001Y-69149999D01*
X150749000Y-69149000D02*
X152100000Y-70500000D01*
X152000000Y-40000000D02*
X152000000Y-46500000D01*
X108980000Y-60565000D02*
X108980000Y-62500000D01*
X148172000Y-42672000D02*
X145288000Y-42672000D01*
X152000000Y-46500000D02*
X148172000Y-42672000D01*
D10*
X109601000Y-59944000D02*
X108980000Y-60565000D01*
X112141000Y-59944000D02*
X109601000Y-59944000D01*
X145161000Y-42799000D02*
X145034000Y-42672000D01*
X123913771Y-42672000D02*
X115500000Y-51085771D01*
X145034000Y-42672000D02*
X123913771Y-42672000D01*
X115500000Y-51085771D02*
X115500000Y-56585000D01*
X147955000Y-42799000D02*
X145161000Y-42799000D01*
X115500000Y-56585000D02*
X112141000Y-59944000D01*
X137000000Y-110000000D02*
X160000000Y-110000000D01*
X160000000Y-110000000D02*
X162000000Y-108000000D01*
X162000000Y-108000000D02*
X162000000Y-95500000D01*
X160000000Y-110000000D02*
X183000000Y-110000000D01*
X183000000Y-110000000D02*
X184000000Y-109000000D01*
X184000000Y-109000000D02*
X184000000Y-96000000D01*
X183000000Y-110000000D02*
X199000000Y-110000000D01*
X199000000Y-110000000D02*
X207000000Y-102000000D01*
D14*
X197000000Y-46500000D02*
X197000000Y-40000000D01*
X197000000Y-40000000D02*
X195000000Y-38000000D01*
X176500000Y-38000000D02*
X174500000Y-40000000D01*
X187000000Y-38000000D02*
X176500000Y-38000000D01*
X174500000Y-40000000D02*
X174500000Y-38500000D01*
D10*
X174500000Y-38500000D02*
X174000000Y-38000000D01*
D14*
X149500000Y-38000000D02*
X147500000Y-40000000D01*
X127000000Y-38000000D02*
X125000000Y-40000000D01*
X145200000Y-37700000D02*
X127300000Y-37700000D01*
X145500000Y-38000000D02*
X145200000Y-37700000D01*
X127300000Y-37700000D02*
X127000000Y-38000000D01*
X147500000Y-40000000D02*
X145500000Y-38000000D01*
D10*
X115000000Y-42600000D02*
X115000000Y-44000000D01*
X117600000Y-40000000D02*
X115000000Y-42600000D01*
D14*
X125000000Y-40000000D02*
X117600000Y-40000000D01*
X117600000Y-40000000D02*
X112000000Y-40000000D01*
X109800000Y-37800000D02*
X104700000Y-37800000D01*
X110249999Y-38249999D02*
X109800000Y-37800000D01*
X104700000Y-37800000D02*
X104250001Y-38249999D01*
X112000000Y-40000000D02*
X110249999Y-38249999D01*
X104250001Y-38249999D02*
X103499999Y-39000001D01*
X103499999Y-39000001D02*
X102500000Y-40000000D01*
X211000000Y-86000000D02*
X211000000Y-94000000D01*
D10*
X207000000Y-98000000D02*
X207000000Y-102000000D01*
X211000000Y-94000000D02*
X207000000Y-98000000D01*
X174500000Y-45085787D02*
X174500000Y-40000000D01*
X174500000Y-46500000D02*
X174500000Y-45085787D01*
D14*
X102500000Y-40000000D02*
X102500000Y-46500000D01*
X197750000Y-59250000D02*
X198000000Y-59000000D01*
X197750000Y-62250000D02*
X197750000Y-59250000D01*
D10*
X162400000Y-54700000D02*
X161700000Y-55400000D01*
X188000000Y-43300000D02*
X188000000Y-45300000D01*
X188000000Y-39700000D02*
X188000000Y-43300000D01*
X187000000Y-38000000D02*
X187000000Y-38700000D01*
X187000000Y-38700000D02*
X188000000Y-39700000D01*
D14*
X149800000Y-37700000D02*
X149500000Y-38000000D01*
X174000000Y-38000000D02*
X173700000Y-37700000D01*
X173700000Y-37700000D02*
X149800000Y-37700000D01*
X187200000Y-37800000D02*
X187000000Y-38000000D01*
X195000000Y-38000000D02*
X194800000Y-37800000D01*
X194800000Y-37800000D02*
X187200000Y-37800000D01*
D10*
X139446000Y-77754000D02*
X139460000Y-77740000D01*
D14*
X139446000Y-79375000D02*
X139446000Y-77754000D01*
D10*
X101085787Y-46500000D02*
X102500000Y-46500000D01*
X99100000Y-46500000D02*
X101085787Y-46500000D01*
X96800000Y-48800000D02*
X99100000Y-46500000D01*
X93059000Y-48800000D02*
X96800000Y-48800000D01*
X89200000Y-55900000D02*
X89200000Y-52659000D01*
X89200000Y-52659000D02*
X93059000Y-48800000D01*
D14*
X134300000Y-62580000D02*
X134380000Y-62500000D01*
X120966220Y-71380438D02*
X120966220Y-69150013D01*
X121500000Y-72000000D02*
X120923329Y-71423329D01*
X120923329Y-71423329D02*
X120966220Y-71380438D01*
X135373000Y-72000000D02*
X121500000Y-72000000D01*
X139460000Y-77740000D02*
X139460000Y-76087000D01*
X139460000Y-76087000D02*
X135373000Y-72000000D01*
X120966220Y-69150013D02*
X122806233Y-67310000D01*
X122806233Y-67310000D02*
X132715000Y-67310000D01*
X132715000Y-67310000D02*
X134300000Y-65725000D01*
X134300000Y-65725000D02*
X134300000Y-62580000D01*
D10*
X197999999Y-47499999D02*
X197000000Y-46500000D01*
X200025000Y-49525000D02*
X197999999Y-47499999D01*
X198000000Y-59000000D02*
X200025000Y-56975000D01*
X200025000Y-56975000D02*
X200025000Y-49525000D01*
D14*
X205050000Y-59000000D02*
X198000000Y-59000000D01*
X206629000Y-60579000D02*
X205050000Y-59000000D01*
D10*
X206121000Y-80899000D02*
X205994000Y-80772000D01*
X204851000Y-80899000D02*
X206121000Y-80899000D01*
X207000000Y-88702004D02*
X205797996Y-87500000D01*
X205797996Y-87500000D02*
X203853998Y-87500000D01*
X203853998Y-87500000D02*
X203000000Y-86646002D01*
X203000000Y-86646002D02*
X203000000Y-82750000D01*
X207000000Y-102000000D02*
X207000000Y-88702004D01*
X203000000Y-82750000D02*
X204851000Y-80899000D01*
X172258000Y-72090000D02*
X173600000Y-70800000D01*
X206375000Y-81000000D02*
X206375000Y-70125000D01*
X171958000Y-72390000D02*
X172258000Y-72090000D01*
X173600000Y-70800000D02*
X176200000Y-68200000D01*
X206375000Y-70125000D02*
X209000000Y-67500000D01*
X176200000Y-68200000D02*
X186700000Y-68200000D01*
X186700000Y-68200000D02*
X199500000Y-81000000D01*
X199500000Y-81000000D02*
X206375000Y-81000000D01*
X206756000Y-60706000D02*
X206629000Y-60579000D01*
X209000000Y-67500000D02*
X206756000Y-65256000D01*
X206756000Y-65256000D02*
X206756000Y-60706000D01*
D14*
X173300000Y-74096000D02*
X171958000Y-72390000D01*
X167480000Y-75620000D02*
X165840000Y-77260000D01*
X168220000Y-75620000D02*
X167480000Y-75620000D01*
X165840000Y-77260000D02*
X165840000Y-78000000D01*
X171776000Y-75620000D02*
X173300000Y-74096000D01*
X168220000Y-75620000D02*
X171776000Y-75620000D01*
X164719000Y-79121000D02*
X163449000Y-79121000D01*
X165840000Y-78000000D02*
X164719000Y-79121000D01*
D10*
X139770956Y-79699956D02*
X139446000Y-79375000D01*
X164973000Y-79121000D02*
X164394044Y-79699956D01*
X164394044Y-79699956D02*
X139770956Y-79699956D01*
X139000000Y-108000000D02*
X137000000Y-110000000D01*
X139000000Y-99630000D02*
X139000000Y-108000000D01*
X138430000Y-99060000D02*
X139000000Y-99630000D01*
X138430000Y-91440000D02*
X138430000Y-99060000D01*
X132500000Y-90000000D02*
X136990000Y-90000000D01*
X136990000Y-90000000D02*
X138430000Y-91440000D01*
D13*
X158580000Y-90000000D02*
X155000000Y-90000000D01*
X162000000Y-95500000D02*
X162000000Y-93420000D01*
X162000000Y-93420000D02*
X158580000Y-90000000D01*
X177500000Y-90000000D02*
X182710000Y-90000000D01*
X182710000Y-90000000D02*
X184150000Y-91440000D01*
X184150000Y-91440000D02*
X184150000Y-96520000D01*
X184150000Y-96520000D02*
X184150000Y-95250000D01*
X202500000Y-87500000D02*
X200000000Y-90000000D01*
X203853998Y-87500000D02*
X202500000Y-87500000D01*
D10*
X111654629Y-90000000D02*
X110000000Y-90000000D01*
X120160000Y-110000000D02*
X117000000Y-106840000D01*
X137000000Y-110000000D02*
X120160000Y-110000000D01*
X117000000Y-106840000D02*
X117000000Y-92000000D01*
X117000000Y-92000000D02*
X115170000Y-90170000D01*
X115170000Y-90170000D02*
X111824629Y-90170000D01*
X111824629Y-90170000D02*
X111654629Y-90000000D01*
D14*
X164340000Y-54700000D02*
X162400000Y-54700000D01*
X165700000Y-53340000D02*
X164340000Y-54700000D01*
X167300000Y-53100000D02*
X167060000Y-53340000D01*
X167060000Y-53340000D02*
X165700000Y-53340000D01*
D13*
X166710000Y-53000000D02*
X165100000Y-54610000D01*
X189200000Y-53000000D02*
X166710000Y-53000000D01*
X190900000Y-54700000D02*
X189200000Y-53000000D01*
X191100000Y-54700000D02*
X190900000Y-54700000D01*
X191800000Y-55400000D02*
X191100000Y-54700000D01*
X194800000Y-54200000D02*
X193600000Y-55400000D01*
X193600000Y-55400000D02*
X191800000Y-55400000D01*
X194800000Y-52100000D02*
X194800000Y-54200000D01*
X184750000Y-43250000D02*
X186850000Y-43250000D01*
X186900000Y-43200000D02*
X186900000Y-44400000D01*
X186850000Y-43250000D02*
X186900000Y-43200000D01*
X186900000Y-44400000D02*
X187875000Y-45375000D01*
X187875000Y-45375000D02*
X188075000Y-45375000D01*
X188075000Y-45375000D02*
X194800000Y-52100000D01*
D14*
X192500000Y-45085787D02*
X192500000Y-40000000D01*
D10*
X192500000Y-46500000D02*
X192500000Y-45085787D01*
D14*
X116020000Y-67000000D02*
X118500000Y-67000000D01*
X111520000Y-62500000D02*
X111520000Y-64770000D01*
X113750000Y-67000000D02*
X116020000Y-67000000D01*
X111520000Y-64770000D02*
X113750000Y-67000000D01*
D13*
X123415986Y-70103655D02*
X123030360Y-70103655D01*
X150000000Y-64800000D02*
X145500000Y-64800000D01*
X153349981Y-61450019D02*
X150000000Y-64800000D01*
X196900010Y-50900010D02*
X196900010Y-54726351D01*
X140196345Y-70103655D02*
X123415986Y-70103655D01*
D14*
X192500000Y-46500000D02*
X196900010Y-50900010D01*
D13*
X145500000Y-64800000D02*
X140196345Y-70103655D01*
X196900010Y-54726351D02*
X194876361Y-56750000D01*
X194876361Y-56750000D02*
X168050000Y-56750000D01*
X168050000Y-56750000D02*
X163349981Y-61450019D01*
X163349981Y-61450019D02*
X153349981Y-61450019D01*
D14*
X136920000Y-79107000D02*
X136920000Y-77740000D01*
X209416923Y-83460000D02*
X207876923Y-85000000D01*
X207876923Y-85000000D02*
X205000000Y-85000000D01*
X210746000Y-83460000D02*
X209416923Y-83460000D01*
X137000000Y-85500000D02*
X143500000Y-85500000D01*
X160000000Y-85000000D02*
X165434297Y-85000000D01*
X165434297Y-85000000D02*
X165999982Y-85000000D01*
X171565681Y-84999996D02*
X170999996Y-84999996D01*
X176499996Y-84999996D02*
X171565681Y-84999996D01*
X195000000Y-85000000D02*
X193065685Y-85000000D01*
D10*
X193065685Y-85000000D02*
X192500000Y-85000000D01*
D14*
X187999996Y-84999996D02*
X188000000Y-85000000D01*
X170999996Y-84999996D02*
X187999996Y-84999996D01*
X113000000Y-85000000D02*
X119500000Y-85000000D01*
D10*
X124590208Y-84975477D02*
X124024523Y-84975477D01*
D14*
X127475477Y-84975477D02*
X124590208Y-84975477D01*
D10*
X134500000Y-77620000D02*
X134380000Y-77740000D01*
D14*
X104600001Y-84600001D02*
X107600001Y-84600001D01*
X134500000Y-77620000D02*
X134500000Y-75200000D01*
X133000000Y-73700000D02*
X104300000Y-73700000D01*
X107600001Y-84600001D02*
X108000000Y-85000000D01*
X104300000Y-73700000D02*
X102750000Y-75250000D01*
X102750000Y-75250000D02*
X102750000Y-82750000D01*
X134500000Y-75200000D02*
X133000000Y-73700000D01*
X134380000Y-78627000D02*
X134380000Y-77740000D01*
X134380000Y-79107000D02*
X134380000Y-77740000D01*
X143500000Y-88500000D02*
X145000000Y-90000000D01*
X143500000Y-85500000D02*
X143500000Y-88500000D01*
D10*
X136475477Y-84975477D02*
X137000000Y-85500000D01*
X127475477Y-84975477D02*
X136475477Y-84975477D01*
D14*
X100000000Y-87960000D02*
X103980000Y-83980000D01*
X100000000Y-90000000D02*
X100000000Y-87960000D01*
X102750000Y-82750000D02*
X103980000Y-83980000D01*
X103980000Y-83980000D02*
X104600001Y-84600001D01*
X119500000Y-87000000D02*
X119500000Y-85000000D01*
X122500000Y-90000000D02*
X119500000Y-87000000D01*
X148565669Y-85500000D02*
X147999984Y-85500000D01*
X152500000Y-85500000D02*
X148565669Y-85500000D01*
X160020000Y-85090000D02*
X152910000Y-85090000D01*
X152910000Y-85090000D02*
X152500000Y-85500000D01*
X166000000Y-88500000D02*
X167500000Y-90000000D01*
X166000000Y-85000000D02*
X166000000Y-88500000D01*
X192500000Y-80740000D02*
X192500000Y-85000000D01*
X191010000Y-79250000D02*
X192500000Y-80740000D01*
X186311000Y-79250000D02*
X191010000Y-79250000D01*
X185166000Y-78105000D02*
X186311000Y-79250000D01*
X185000000Y-71900000D02*
X185166000Y-72066000D01*
X185166000Y-72066000D02*
X185166000Y-78105000D01*
X188000000Y-88000000D02*
X190000000Y-90000000D01*
X188000000Y-85000000D02*
X188000000Y-88000000D01*
X195000000Y-85000000D02*
X201000000Y-85000000D01*
X170000000Y-46500000D02*
X170000000Y-40000000D01*
D10*
X166085787Y-49000000D02*
X139414229Y-49000000D01*
X139414229Y-49000000D02*
X134814229Y-44400000D01*
X134814229Y-44400000D02*
X123600000Y-44400000D01*
D14*
X168585787Y-46500000D02*
X166085787Y-49000000D01*
D10*
X123600000Y-44400000D02*
X116586000Y-51414000D01*
D27*
X116600000Y-60974000D02*
X116586000Y-60960000D01*
D14*
X116600000Y-62500000D02*
X116600000Y-60974000D01*
D10*
X116586000Y-51414000D02*
X116586000Y-60960000D01*
D14*
X170000000Y-46500000D02*
X168585787Y-46500000D01*
X131840000Y-79107000D02*
X131840000Y-77740000D01*
D10*
X119126000Y-62486000D02*
X119140000Y-62500000D01*
D14*
X119126000Y-60071000D02*
X119126000Y-62486000D01*
D10*
X129500000Y-46500000D02*
X129500000Y-47030000D01*
D14*
X128778000Y-47752000D02*
X128016000Y-47752000D01*
X129500000Y-47030000D02*
X128778000Y-47752000D01*
D10*
X118500000Y-59445000D02*
X119126000Y-60071000D01*
X118500000Y-51000000D02*
X118500000Y-59445000D01*
X121000022Y-48499978D02*
X118500000Y-51000000D01*
X128030022Y-47752000D02*
X127282044Y-48499978D01*
X127282044Y-48499978D02*
X121000022Y-48499978D01*
D14*
X121680000Y-60057000D02*
X121680000Y-62500000D01*
D10*
X128340000Y-57500000D02*
X124237000Y-57500000D01*
X124237000Y-57500000D02*
X121680000Y-60057000D01*
D14*
X176000000Y-78000000D02*
X173300033Y-80699967D01*
D10*
X173300033Y-80699967D02*
X128705967Y-80699967D01*
D14*
X182000000Y-76445000D02*
X182000000Y-71900000D01*
X176000000Y-78000000D02*
X180445000Y-78000000D01*
X180445000Y-78000000D02*
X182000000Y-76445000D01*
D13*
X126819130Y-78930500D02*
X126936500Y-78930500D01*
X126760000Y-78871370D02*
X126819130Y-78930500D01*
X126760000Y-77740000D02*
X126760000Y-78871370D01*
D10*
X128705967Y-80699967D02*
X126936500Y-78930500D01*
D14*
X103000000Y-50500000D02*
X103000000Y-64000000D01*
X103000000Y-64000000D02*
X108000000Y-69000000D01*
D10*
X124220000Y-63631370D02*
X124220000Y-62500000D01*
D14*
X124220000Y-64180000D02*
X124220000Y-63631370D01*
D10*
X108000000Y-69000000D02*
X119400000Y-69000000D01*
X119400000Y-69000000D02*
X124220000Y-64180000D01*
D14*
X107000000Y-40000000D02*
X107000000Y-46500000D01*
X107000000Y-46500000D02*
X107000000Y-47940000D01*
X104440000Y-50500000D02*
X103000000Y-50500000D01*
X107000000Y-47940000D02*
X104440000Y-50500000D01*
D10*
X190000000Y-85000000D02*
X190000000Y-84500000D01*
X190000000Y-84500000D02*
X187349976Y-81849976D01*
X187349976Y-81849976D02*
X166841519Y-81849976D01*
X166841519Y-81849976D02*
X166691521Y-81699978D01*
X195000000Y-90000000D02*
X190000000Y-85000000D01*
X166691521Y-81699978D02*
X127546978Y-81699978D01*
X127546978Y-81699978D02*
X125285500Y-79438500D01*
D13*
X125349000Y-79502000D02*
X125285500Y-79438500D01*
X125349000Y-80010000D02*
X125349000Y-79502000D01*
X124460000Y-79121000D02*
X125349000Y-80010000D01*
X124220000Y-77740000D02*
X124460000Y-77980000D01*
X124460000Y-77980000D02*
X124460000Y-79121000D01*
D14*
X126760000Y-60184000D02*
X126760000Y-62500000D01*
D10*
X127254000Y-59690000D02*
X126760000Y-60184000D01*
X128651000Y-59690000D02*
X127254000Y-59690000D01*
X132500000Y-55841000D02*
X128651000Y-59690000D01*
X132840000Y-53500000D02*
X132500000Y-53840000D01*
D14*
X132500000Y-53840000D02*
X132500000Y-55841000D01*
D10*
X171330001Y-88830001D02*
X171330001Y-87752687D01*
X172500000Y-90000000D02*
X171330001Y-88830001D01*
X171330001Y-87752687D02*
X166277303Y-82699989D01*
X166277303Y-82699989D02*
X126006989Y-82699989D01*
D14*
X122479999Y-79172999D02*
X122872500Y-79565500D01*
X122479999Y-78539999D02*
X122479999Y-79172999D01*
D13*
X121680000Y-77740000D02*
X122479999Y-78539999D01*
D10*
X126006989Y-82699989D02*
X122872500Y-79565500D01*
D13*
X138000000Y-51500000D02*
X138000000Y-50000000D01*
X191118630Y-52590000D02*
X190228630Y-51700000D01*
X192250000Y-52590000D02*
X191118630Y-52590000D01*
X148800000Y-51700000D02*
X145000000Y-55500000D01*
X145000000Y-55500000D02*
X142000000Y-55500000D01*
X190228630Y-51700000D02*
X148800000Y-51700000D01*
X142000000Y-55500000D02*
X138000000Y-51500000D01*
D14*
X129300000Y-60946000D02*
X129300000Y-62500000D01*
D10*
X124500000Y-56000000D02*
X129000000Y-51500000D01*
X120000000Y-56000000D02*
X124500000Y-56000000D01*
X120000000Y-52500000D02*
X120000000Y-56000000D01*
X135000000Y-55246000D02*
X129300000Y-60946000D01*
X123000011Y-49499989D02*
X120000000Y-52500000D01*
D14*
X137900000Y-49900000D02*
X137499989Y-49499989D01*
D10*
X137499989Y-49499989D02*
X123000011Y-49499989D01*
X129000000Y-51500000D02*
X135000000Y-51500000D01*
X135000000Y-51500000D02*
X135000000Y-55246000D01*
X119126000Y-77754000D02*
X119140000Y-77740000D01*
D14*
X119126000Y-79121000D02*
X119126000Y-77754000D01*
D10*
X120523000Y-80518000D02*
X119126000Y-79121000D01*
X121918000Y-80518000D02*
X120523000Y-80518000D01*
X149500000Y-90000000D02*
X146000000Y-86500000D01*
X150000000Y-90000000D02*
X149500000Y-90000000D01*
X146000000Y-86500000D02*
X146000000Y-85500000D01*
X146000000Y-85500000D02*
X144200000Y-83700000D01*
X144200000Y-83700000D02*
X125100000Y-83700000D01*
X125100000Y-83700000D02*
X121918000Y-80518000D01*
X131826000Y-62486000D02*
X131840000Y-62500000D01*
X135499989Y-50499989D02*
X136109999Y-51109999D01*
X126160011Y-50499989D02*
X135499989Y-50499989D01*
X136109999Y-51109999D02*
X136109999Y-56549001D01*
X136109999Y-56549001D02*
X131826000Y-60833000D01*
D14*
X131826000Y-60833000D02*
X131826000Y-62486000D01*
X125860000Y-50800000D02*
X127127000Y-50800000D01*
X122660000Y-54000000D02*
X125860000Y-50800000D01*
D13*
X116600000Y-80504000D02*
X116600000Y-77740000D01*
X121500000Y-83000000D02*
X120500000Y-82000000D01*
X127500000Y-90000000D02*
X127422686Y-90000000D01*
X121500000Y-85000000D02*
X121500000Y-83000000D01*
X124500000Y-88000000D02*
X121500000Y-85000000D01*
X125422686Y-88000000D02*
X124500000Y-88000000D01*
X127422686Y-90000000D02*
X125422686Y-88000000D01*
X120500000Y-82000000D02*
X118068000Y-82000000D01*
X118068000Y-82000000D02*
X116586000Y-80518000D01*
X116586000Y-80518000D02*
X116600000Y-80504000D01*
X114060000Y-79742000D02*
X114060000Y-77740000D01*
X110800000Y-83002000D02*
X114060000Y-79742000D01*
X110800000Y-85161000D02*
X110800000Y-83002000D01*
X105000000Y-90000000D02*
X105961000Y-90000000D01*
X105961000Y-90000000D02*
X110800000Y-85161000D01*
D14*
X136920000Y-61368630D02*
X136906000Y-61354630D01*
X136920000Y-61368630D02*
X136920000Y-62500000D01*
X111520000Y-79262000D02*
X111520000Y-77740000D01*
X139460000Y-61368630D02*
X139446000Y-61354630D01*
X139460000Y-61368630D02*
X139460000Y-62500000D01*
X108980000Y-80377000D02*
X108980000Y-77740000D01*
X211000000Y-80920000D02*
X211000000Y-80000000D01*
X211000000Y-80000000D02*
X209000000Y-78000000D01*
X188000000Y-55000000D02*
X177000000Y-55000000D01*
X188000000Y-62232218D02*
X188000000Y-59489949D01*
X191500000Y-65732218D02*
X188000000Y-62232218D01*
X191500000Y-70000000D02*
X191500000Y-65732218D01*
X199500000Y-78000000D02*
X191500000Y-70000000D01*
X204000000Y-78000000D02*
X199500000Y-78000000D01*
X188000000Y-59489949D02*
X188000000Y-58500000D01*
X143600000Y-62500000D02*
X142000000Y-62500000D01*
D13*
X145949992Y-60150008D02*
X143600000Y-62500000D01*
X162349992Y-60150008D02*
X145949992Y-60150008D01*
X177000000Y-55000000D02*
X167500000Y-55000000D01*
X167500000Y-55000000D02*
X162349992Y-60150008D01*
D14*
X198250000Y-65250000D02*
X197750000Y-64750000D01*
X196250000Y-65250000D02*
X198250000Y-65250000D01*
X196000000Y-69500000D02*
X196000000Y-65500000D01*
X196000000Y-65500000D02*
X196250000Y-65250000D01*
X197750000Y-64750000D02*
X194250000Y-64750000D01*
X193049999Y-63549999D02*
X192250000Y-62750000D01*
X194250000Y-64750000D02*
X193049999Y-63549999D01*
X201402220Y-63458472D02*
X201402220Y-72597780D01*
X202458472Y-62402220D02*
X201402220Y-63458472D01*
X204001280Y-62402220D02*
X202458472Y-62402220D01*
X204001280Y-72597780D02*
X201402220Y-72597780D01*
X201250000Y-72250000D02*
X198500000Y-69500000D01*
X201500000Y-72250000D02*
X201250000Y-72250000D01*
X201402220Y-72597780D02*
X201402220Y-72347780D01*
X201402220Y-72347780D02*
X201500000Y-72250000D01*
X117540000Y-45272792D02*
X117540000Y-44000000D01*
X112500000Y-54000000D02*
X112500000Y-51368630D01*
X112500000Y-51368630D02*
X117540000Y-46328630D01*
X117540000Y-46328630D02*
X117540000Y-45272792D01*
D10*
X182210000Y-43250000D02*
X182210000Y-43540000D01*
D13*
X175700011Y-50399989D02*
X176500000Y-49600000D01*
X143000000Y-53500000D02*
X146100011Y-50399989D01*
X146100011Y-50399989D02*
X175700011Y-50399989D01*
D14*
X182210000Y-43890000D02*
X176500000Y-49600000D01*
X182210000Y-43750000D02*
X182210000Y-43890000D01*
X149900000Y-72500000D02*
X152100000Y-72500000D01*
X149600000Y-77300000D02*
X148500000Y-76200000D01*
X161030923Y-77300000D02*
X149600000Y-77300000D01*
X164130923Y-74200000D02*
X161030923Y-77300000D01*
X165460000Y-74200000D02*
X164130923Y-74200000D01*
X169418000Y-72390000D02*
X167360000Y-72300000D01*
X167360000Y-72300000D02*
X165460000Y-74200000D01*
X148500000Y-76200000D02*
X148500000Y-73900000D01*
X148500000Y-73900000D02*
X149900000Y-72500000D01*
X156701000Y-72500000D02*
X154100000Y-72500000D01*
X156576000Y-70500000D02*
X154100000Y-70500000D01*
X156591000Y-70485000D02*
X156576000Y-70500000D01*
X156765000Y-68500000D02*
X154100000Y-68500000D01*
X155564000Y-75300000D02*
X153100000Y-75300000D01*
X155915000Y-65700000D02*
X153100000Y-65700000D01*
X114060000Y-61368630D02*
X114046000Y-61354630D01*
X114060000Y-61368630D02*
X114060000Y-62500000D01*
X99900001Y-58599999D02*
X100700000Y-57800000D01*
X93640000Y-55900000D02*
X96939999Y-59199999D01*
X91740000Y-55900000D02*
X93640000Y-55900000D01*
X96939999Y-59199999D02*
X99300001Y-59199999D01*
X99300001Y-59199999D02*
X99900001Y-58599999D01*
X129300000Y-78871370D02*
X129667000Y-79238370D01*
D13*
X129300000Y-78871370D02*
X129300000Y-77740000D01*
D14*
X152460000Y-57500000D02*
X138500000Y-57500000D01*
X154060000Y-55900000D02*
X152460000Y-57500000D01*
D10*
X158660000Y-55900000D02*
X159160000Y-55400000D01*
D14*
X154000000Y-55900000D02*
X158660000Y-55900000D01*
D10*
G36*
X86533282Y-38090181D02*
G01*
X86054086Y-39022596D01*
X85765123Y-40030330D01*
X85677400Y-41074999D01*
X85794258Y-42116811D01*
X86111246Y-43116083D01*
X86616290Y-44034755D01*
X87290153Y-44837834D01*
X88107168Y-45494731D01*
X89036215Y-45980426D01*
X90041908Y-46276417D01*
X91085938Y-46371431D01*
X92128541Y-46261849D01*
X93130002Y-45951845D01*
X94052177Y-45453227D01*
X94859941Y-44784986D01*
X95522526Y-43972577D01*
X96014694Y-43046943D01*
X96317699Y-42043342D01*
X96420000Y-41000000D01*
X96417906Y-40850017D01*
X96286513Y-39809939D01*
X95955604Y-38815189D01*
X95437782Y-37903658D01*
X95154092Y-37575000D01*
X105679401Y-37575000D01*
X105246977Y-37863936D01*
X104863936Y-38246977D01*
X104562982Y-38697387D01*
X104355681Y-39197855D01*
X104250000Y-39729149D01*
X104250000Y-40270851D01*
X104355681Y-40802145D01*
X104562982Y-41302613D01*
X104750000Y-41582506D01*
X104750001Y-44917493D01*
X104562982Y-45197387D01*
X104355681Y-45697855D01*
X104250000Y-46229149D01*
X104250000Y-46770851D01*
X104355681Y-47302145D01*
X104385027Y-47372993D01*
X103508020Y-48250000D01*
X103110528Y-48250000D01*
X103000000Y-48239114D01*
X102858779Y-48253023D01*
X102558923Y-48282556D01*
X102134796Y-48411214D01*
X101743919Y-48620142D01*
X101401312Y-48901312D01*
X101120142Y-49243919D01*
X100911214Y-49634796D01*
X100782556Y-50058923D01*
X100739114Y-50500000D01*
X100750000Y-50610528D01*
X100750000Y-55250000D01*
X100448847Y-55250000D01*
X99956193Y-55347995D01*
X99492122Y-55540220D01*
X99074470Y-55819286D01*
X98719286Y-56174470D01*
X98440220Y-56592122D01*
X98291982Y-56949999D01*
X97871980Y-56949999D01*
X95309148Y-54387168D01*
X95238688Y-54301312D01*
X94896081Y-54020142D01*
X94505204Y-53811214D01*
X94081077Y-53682556D01*
X93750528Y-53650000D01*
X93750525Y-53650000D01*
X93640000Y-53639114D01*
X93529475Y-53650000D01*
X93142510Y-53650000D01*
X92995246Y-53551601D01*
X92512976Y-53351838D01*
X92001002Y-53250000D01*
X91478998Y-53250000D01*
X90967024Y-53351838D01*
X90484754Y-53551601D01*
X90050724Y-53841611D01*
X89681611Y-54210724D01*
X89391601Y-54644754D01*
X89191838Y-55127024D01*
X89090000Y-55638998D01*
X89090000Y-56161002D01*
X89191838Y-56672976D01*
X89391601Y-57155246D01*
X89681611Y-57589276D01*
X90050724Y-57958389D01*
X90484754Y-58248399D01*
X90967024Y-58448162D01*
X91478998Y-58550000D01*
X92001002Y-58550000D01*
X92512976Y-58448162D01*
X92861725Y-58303705D01*
X94110400Y-59552381D01*
X93468750Y-59552381D01*
X93468750Y-59382738D01*
X85593750Y-59382738D01*
X85593750Y-99817262D01*
X93468750Y-99817262D01*
X93468750Y-91647619D01*
X96985000Y-91647619D01*
X96985000Y-61456453D01*
X97050524Y-61449999D01*
X99189476Y-61449999D01*
X99300001Y-61460885D01*
X99410526Y-61449999D01*
X99410529Y-61449999D01*
X99741078Y-61417443D01*
X100165205Y-61288785D01*
X100556082Y-61079857D01*
X100750001Y-60920712D01*
X100750001Y-63889465D01*
X100739114Y-64000000D01*
X100775149Y-64365858D01*
X100782557Y-64441077D01*
X100803366Y-64509676D01*
X100911214Y-64865203D01*
X101120142Y-65256081D01*
X101310530Y-65488069D01*
X101401313Y-65598688D01*
X101487164Y-65669144D01*
X106487164Y-70669145D01*
X106743918Y-70879858D01*
X107134797Y-71088786D01*
X107558923Y-71217443D01*
X108000000Y-71260886D01*
X108441077Y-71217443D01*
X108865203Y-71088786D01*
X109031310Y-71000000D01*
X119301757Y-71000000D01*
X119400000Y-71009676D01*
X119498243Y-71000000D01*
X119498253Y-71000000D01*
X119792069Y-70971062D01*
X120169070Y-70856699D01*
X120516517Y-70670985D01*
X120618776Y-70587063D01*
X120644152Y-70714639D01*
X120828838Y-71160510D01*
X121022269Y-71450000D01*
X104410525Y-71450000D01*
X104299999Y-71439114D01*
X104189474Y-71450000D01*
X104189472Y-71450000D01*
X103858923Y-71482556D01*
X103453916Y-71605414D01*
X103434796Y-71611214D01*
X103043918Y-71820142D01*
X102788314Y-72029911D01*
X102701312Y-72101312D01*
X102630855Y-72187164D01*
X101237168Y-73580852D01*
X101151312Y-73651312D01*
X100870142Y-73993919D01*
X100661214Y-74384797D01*
X100532556Y-74808924D01*
X100505606Y-75082556D01*
X100489114Y-75250000D01*
X100500000Y-75360526D01*
X100500001Y-82639465D01*
X100489114Y-82750000D01*
X100527935Y-83144152D01*
X100532557Y-83191077D01*
X100547129Y-83239114D01*
X100661214Y-83615203D01*
X100835935Y-83942084D01*
X98487164Y-86290856D01*
X98401313Y-86361312D01*
X98330857Y-86447163D01*
X98330855Y-86447165D01*
X98120142Y-86703919D01*
X97911214Y-87094797D01*
X97881663Y-87192214D01*
X97782556Y-87518923D01*
X97750000Y-87849472D01*
X97739114Y-87960000D01*
X97750000Y-88070525D01*
X97750000Y-88120496D01*
X97731888Y-88138608D01*
X97412329Y-88616861D01*
X97192214Y-89148267D01*
X97080000Y-89712405D01*
X97080000Y-90287595D01*
X97192214Y-90851733D01*
X97412329Y-91383139D01*
X97731888Y-91861392D01*
X98138608Y-92268112D01*
X98616861Y-92587671D01*
X99148267Y-92807786D01*
X99712405Y-92920000D01*
X100287595Y-92920000D01*
X100851733Y-92807786D01*
X101383139Y-92587671D01*
X101861392Y-92268112D01*
X102268112Y-91861392D01*
X102500000Y-91514348D01*
X102731888Y-91861392D01*
X103138608Y-92268112D01*
X103616861Y-92587671D01*
X104148267Y-92807786D01*
X104712405Y-92920000D01*
X105287595Y-92920000D01*
X105851733Y-92807786D01*
X106383139Y-92587671D01*
X106861392Y-92268112D01*
X107268112Y-91861392D01*
X107502017Y-91511329D01*
X107555966Y-91445592D01*
X111834039Y-87167520D01*
X111839490Y-87171162D01*
X112285361Y-87355848D01*
X112758696Y-87450000D01*
X113241304Y-87450000D01*
X113714639Y-87355848D01*
X113970178Y-87250000D01*
X117263737Y-87250000D01*
X117282556Y-87441076D01*
X117411214Y-87865203D01*
X117620142Y-88256081D01*
X117901312Y-88598688D01*
X117987169Y-88669149D01*
X119580000Y-90261980D01*
X119580000Y-90287595D01*
X119692214Y-90851733D01*
X119912329Y-91383139D01*
X120231888Y-91861392D01*
X120638608Y-92268112D01*
X121116861Y-92587671D01*
X121648267Y-92807786D01*
X122212405Y-92920000D01*
X122787595Y-92920000D01*
X123351733Y-92807786D01*
X123883139Y-92587671D01*
X124361392Y-92268112D01*
X124768112Y-91861392D01*
X125000000Y-91514348D01*
X125231888Y-91861392D01*
X125638608Y-92268112D01*
X126116861Y-92587671D01*
X126648267Y-92807786D01*
X127212405Y-92920000D01*
X127787595Y-92920000D01*
X128351733Y-92807786D01*
X128883139Y-92587671D01*
X129361392Y-92268112D01*
X129768112Y-91861392D01*
X130087671Y-91383139D01*
X130307786Y-90851733D01*
X130420000Y-90287595D01*
X130420000Y-89712405D01*
X130307786Y-89148267D01*
X130087671Y-88616861D01*
X129768112Y-88138608D01*
X129361392Y-87731888D01*
X128883139Y-87412329D01*
X128351733Y-87192214D01*
X128090308Y-87140213D01*
X128340681Y-87064263D01*
X128506788Y-86975477D01*
X135300195Y-86975477D01*
X135401312Y-87098688D01*
X135743919Y-87379858D01*
X136134796Y-87588786D01*
X136558923Y-87717444D01*
X136889472Y-87750000D01*
X141250000Y-87750000D01*
X141250000Y-88389475D01*
X141239114Y-88500000D01*
X141250000Y-88610525D01*
X141250000Y-88610528D01*
X141282556Y-88941077D01*
X141352986Y-89173250D01*
X141411214Y-89365203D01*
X141620142Y-89756081D01*
X141776430Y-89946518D01*
X141901313Y-90098688D01*
X141987164Y-90169144D01*
X142080000Y-90261980D01*
X142080000Y-90287595D01*
X142192214Y-90851733D01*
X142412329Y-91383139D01*
X142731888Y-91861392D01*
X143138608Y-92268112D01*
X143616861Y-92587671D01*
X144148267Y-92807786D01*
X144712405Y-92920000D01*
X145287595Y-92920000D01*
X145851733Y-92807786D01*
X146383139Y-92587671D01*
X146861392Y-92268112D01*
X147268112Y-91861392D01*
X147500000Y-91514348D01*
X147731888Y-91861392D01*
X148138608Y-92268112D01*
X148616861Y-92587671D01*
X149148267Y-92807786D01*
X149712405Y-92920000D01*
X150287595Y-92920000D01*
X150851733Y-92807786D01*
X151383139Y-92587671D01*
X151861392Y-92268112D01*
X152268112Y-91861392D01*
X152587671Y-91383139D01*
X152807786Y-90851733D01*
X152920000Y-90287595D01*
X152920000Y-89712405D01*
X152807786Y-89148267D01*
X152587671Y-88616861D01*
X152268112Y-88138608D01*
X151879504Y-87750000D01*
X152389475Y-87750000D01*
X152500000Y-87760886D01*
X152610525Y-87750000D01*
X152610528Y-87750000D01*
X152941077Y-87717444D01*
X153365204Y-87588786D01*
X153756081Y-87379858D01*
X153804648Y-87340000D01*
X160130528Y-87340000D01*
X160461077Y-87307444D01*
X160650444Y-87250000D01*
X163750000Y-87250000D01*
X163750000Y-88389475D01*
X163739114Y-88500000D01*
X163750000Y-88610525D01*
X163750000Y-88610528D01*
X163771297Y-88826750D01*
X163782557Y-88941076D01*
X163911214Y-89365203D01*
X164120142Y-89756081D01*
X164276430Y-89946518D01*
X164401313Y-90098688D01*
X164487164Y-90169144D01*
X164580000Y-90261980D01*
X164580000Y-90287595D01*
X164692214Y-90851733D01*
X164912329Y-91383139D01*
X165231888Y-91861392D01*
X165638608Y-92268112D01*
X166116861Y-92587671D01*
X166648267Y-92807786D01*
X167212405Y-92920000D01*
X167787595Y-92920000D01*
X168351733Y-92807786D01*
X168883139Y-92587671D01*
X169361392Y-92268112D01*
X169768112Y-91861392D01*
X170000000Y-91514348D01*
X170231888Y-91861392D01*
X170638608Y-92268112D01*
X171116861Y-92587671D01*
X171648267Y-92807786D01*
X172212405Y-92920000D01*
X172787595Y-92920000D01*
X173351733Y-92807786D01*
X173883139Y-92587671D01*
X174361392Y-92268112D01*
X174768112Y-91861392D01*
X175087671Y-91383139D01*
X175307786Y-90851733D01*
X175420000Y-90287595D01*
X175420000Y-89712405D01*
X175307786Y-89148267D01*
X175087671Y-88616861D01*
X174768112Y-88138608D01*
X174361392Y-87731888D01*
X173883139Y-87412329D01*
X173491231Y-87249996D01*
X185750000Y-87249996D01*
X185750000Y-87889475D01*
X185739114Y-88000000D01*
X185750000Y-88110525D01*
X185750000Y-88110528D01*
X185782556Y-88441077D01*
X185847529Y-88655261D01*
X185911214Y-88865203D01*
X186120142Y-89256081D01*
X186257681Y-89423672D01*
X186401313Y-89598688D01*
X186487164Y-89669144D01*
X187080000Y-90261980D01*
X187080000Y-90287595D01*
X187192214Y-90851733D01*
X187412329Y-91383139D01*
X187731888Y-91861392D01*
X188138608Y-92268112D01*
X188616861Y-92587671D01*
X189148267Y-92807786D01*
X189712405Y-92920000D01*
X190287595Y-92920000D01*
X190851733Y-92807786D01*
X191383139Y-92587671D01*
X191861392Y-92268112D01*
X192268112Y-91861392D01*
X192500000Y-91514348D01*
X192731888Y-91861392D01*
X193138608Y-92268112D01*
X193616861Y-92587671D01*
X194148267Y-92807786D01*
X194712405Y-92920000D01*
X195287595Y-92920000D01*
X195851733Y-92807786D01*
X196383139Y-92587671D01*
X196861392Y-92268112D01*
X197268112Y-91861392D01*
X197587671Y-91383139D01*
X197807786Y-90851733D01*
X197920000Y-90287595D01*
X197920000Y-89712405D01*
X197807786Y-89148267D01*
X197587671Y-88616861D01*
X197268112Y-88138608D01*
X196861392Y-87731888D01*
X196383139Y-87412329D01*
X195991241Y-87250000D01*
X200029822Y-87250000D01*
X200285361Y-87355848D01*
X200758696Y-87450000D01*
X201241304Y-87450000D01*
X201714639Y-87355848D01*
X202160510Y-87171162D01*
X202561784Y-86903040D01*
X202903040Y-86561784D01*
X203000000Y-86416673D01*
X203096960Y-86561784D01*
X203438216Y-86903040D01*
X203839490Y-87171162D01*
X204285361Y-87355848D01*
X204758696Y-87450000D01*
X205241304Y-87450000D01*
X205714639Y-87355848D01*
X205970178Y-87250000D01*
X207766398Y-87250000D01*
X207876923Y-87260886D01*
X207987448Y-87250000D01*
X207987451Y-87250000D01*
X208318000Y-87217444D01*
X208742127Y-87088786D01*
X209133004Y-86879858D01*
X209475611Y-86598688D01*
X209546072Y-86512831D01*
X210004000Y-86054904D01*
X210481078Y-86149800D01*
X211010922Y-86149800D01*
X211530586Y-86046433D01*
X212020098Y-85843670D01*
X212225000Y-85706759D01*
X212225000Y-103735569D01*
X211878227Y-103464640D01*
X210942489Y-102991965D01*
X209932762Y-102710044D01*
X208887506Y-102629616D01*
X207846536Y-102753744D01*
X206849500Y-103077701D01*
X205934377Y-103589146D01*
X205136022Y-104268599D01*
X204484844Y-105090181D01*
X204005648Y-106022596D01*
X203716685Y-107030330D01*
X203628962Y-108074999D01*
X203745820Y-109116811D01*
X204062808Y-110116083D01*
X204567852Y-111034755D01*
X204727486Y-111225000D01*
X95316655Y-111225000D01*
X95522526Y-110972577D01*
X96014694Y-110046943D01*
X96317699Y-109043342D01*
X96420000Y-108000000D01*
X96417906Y-107850017D01*
X96286513Y-106809939D01*
X95955604Y-105815189D01*
X95437782Y-104903658D01*
X94752772Y-104110066D01*
X93926665Y-103464640D01*
X92990927Y-102991965D01*
X91981200Y-102710044D01*
X90935944Y-102629616D01*
X89894974Y-102753744D01*
X88897938Y-103077701D01*
X87982815Y-103589146D01*
X87184460Y-104268599D01*
X86533282Y-105090181D01*
X86054086Y-106022596D01*
X85765123Y-107030330D01*
X85677400Y-108074999D01*
X85794258Y-109116811D01*
X86111246Y-110116083D01*
X86616290Y-111034755D01*
X86775924Y-111225000D01*
X84575000Y-111225000D01*
X84575000Y-101922197D01*
X97251692Y-101922197D01*
X97264200Y-103225219D01*
X97496076Y-104507505D01*
X97940687Y-105732390D01*
X98585322Y-106864852D01*
X99411549Y-107872508D01*
X100395744Y-108726549D01*
X101509764Y-109402553D01*
X102721757Y-109881192D01*
X103997069Y-110148780D01*
X105299234Y-110197666D01*
X106591019Y-110026452D01*
X107835488Y-109640034D01*
X108997059Y-109049461D01*
X110042518Y-108271618D01*
X110941972Y-107328747D01*
X111669703Y-106247808D01*
X112204903Y-105059707D01*
X112532270Y-103798416D01*
X112642442Y-102500000D01*
X112641022Y-102352060D01*
X112596221Y-101922197D01*
X119751692Y-101922197D01*
X119764200Y-103225219D01*
X119996076Y-104507505D01*
X120440687Y-105732390D01*
X121085322Y-106864852D01*
X121911549Y-107872508D01*
X122895744Y-108726549D01*
X124009764Y-109402553D01*
X125221757Y-109881192D01*
X126497069Y-110148780D01*
X127799234Y-110197666D01*
X129091019Y-110026452D01*
X130335488Y-109640034D01*
X131497059Y-109049461D01*
X132542518Y-108271618D01*
X133441972Y-107328747D01*
X134169703Y-106247808D01*
X134704903Y-105059707D01*
X135032270Y-103798416D01*
X135142442Y-102500000D01*
X135141022Y-102352060D01*
X135096221Y-101922197D01*
X142251692Y-101922197D01*
X142264200Y-103225219D01*
X142496076Y-104507505D01*
X142940687Y-105732390D01*
X143585322Y-106864852D01*
X144411549Y-107872508D01*
X145395744Y-108726549D01*
X146509764Y-109402553D01*
X147721757Y-109881192D01*
X148997069Y-110148780D01*
X150299234Y-110197666D01*
X151591019Y-110026452D01*
X152835488Y-109640034D01*
X153997059Y-109049461D01*
X155042518Y-108271618D01*
X155941972Y-107328747D01*
X156669703Y-106247808D01*
X157204903Y-105059707D01*
X157532270Y-103798416D01*
X157642442Y-102500000D01*
X157641022Y-102352060D01*
X157601432Y-101972197D01*
X164815471Y-101972197D01*
X164827979Y-103275219D01*
X165059855Y-104557505D01*
X165504466Y-105782390D01*
X166149101Y-106914852D01*
X166975328Y-107922508D01*
X167959523Y-108776549D01*
X169073543Y-109452553D01*
X170285536Y-109931192D01*
X171560848Y-110198780D01*
X172863013Y-110247666D01*
X174154798Y-110076452D01*
X175399267Y-109690034D01*
X176560838Y-109099461D01*
X177606297Y-108321618D01*
X178505751Y-107378747D01*
X179233482Y-106297808D01*
X179768682Y-105109707D01*
X180096049Y-103848416D01*
X180206221Y-102550000D01*
X180204801Y-102402060D01*
X180154789Y-101922197D01*
X187379250Y-101922197D01*
X187391758Y-103225219D01*
X187623634Y-104507505D01*
X188068245Y-105732390D01*
X188712880Y-106864852D01*
X189539107Y-107872508D01*
X190523302Y-108726549D01*
X191637322Y-109402553D01*
X192849315Y-109881192D01*
X194124627Y-110148780D01*
X195426792Y-110197666D01*
X196718577Y-110026452D01*
X197963046Y-109640034D01*
X199124617Y-109049461D01*
X200170076Y-108271618D01*
X201069530Y-107328747D01*
X201797261Y-106247808D01*
X202332461Y-105059707D01*
X202659828Y-103798416D01*
X202770000Y-102500000D01*
X202768580Y-102352060D01*
X202633502Y-101055998D01*
X202281982Y-99801225D01*
X201724072Y-98623617D01*
X200975723Y-97556847D01*
X200058334Y-96631418D01*
X198998136Y-95873788D01*
X197825442Y-95305623D01*
X196573783Y-94943167D01*
X195278949Y-94796784D01*
X193977963Y-94870659D01*
X192708023Y-95162680D01*
X191505442Y-95664498D01*
X190404605Y-96361764D01*
X189436987Y-97234541D01*
X188630257Y-98257874D01*
X188007481Y-99402502D01*
X187586466Y-100635696D01*
X187379250Y-101922197D01*
X180154789Y-101922197D01*
X180069723Y-101105998D01*
X179718203Y-99851225D01*
X179160293Y-98673617D01*
X178411944Y-97606847D01*
X177494555Y-96681418D01*
X176434357Y-95923788D01*
X175261663Y-95355623D01*
X174010004Y-94993167D01*
X172715170Y-94846784D01*
X171414184Y-94920659D01*
X170144244Y-95212680D01*
X168941663Y-95714498D01*
X167840826Y-96411764D01*
X166873208Y-97284541D01*
X166066478Y-98307874D01*
X165443702Y-99452502D01*
X165022687Y-100685696D01*
X164815471Y-101972197D01*
X157601432Y-101972197D01*
X157505944Y-101055998D01*
X157154424Y-99801225D01*
X156596514Y-98623617D01*
X155848165Y-97556847D01*
X154930776Y-96631418D01*
X153870578Y-95873788D01*
X152697884Y-95305623D01*
X151446225Y-94943167D01*
X150151391Y-94796784D01*
X148850405Y-94870659D01*
X147580465Y-95162680D01*
X146377884Y-95664498D01*
X145277047Y-96361764D01*
X144309429Y-97234541D01*
X143502699Y-98257874D01*
X142879923Y-99402502D01*
X142458908Y-100635696D01*
X142251692Y-101922197D01*
X135096221Y-101922197D01*
X135005944Y-101055998D01*
X134654424Y-99801225D01*
X134096514Y-98623617D01*
X133348165Y-97556847D01*
X132430776Y-96631418D01*
X131370578Y-95873788D01*
X130197884Y-95305623D01*
X128946225Y-94943167D01*
X127651391Y-94796784D01*
X126350405Y-94870659D01*
X125080465Y-95162680D01*
X123877884Y-95664498D01*
X122777047Y-96361764D01*
X121809429Y-97234541D01*
X121002699Y-98257874D01*
X120379923Y-99402502D01*
X119958908Y-100635696D01*
X119751692Y-101922197D01*
X112596221Y-101922197D01*
X112505944Y-101055998D01*
X112154424Y-99801225D01*
X111596514Y-98623617D01*
X110848165Y-97556847D01*
X109930776Y-96631418D01*
X108870578Y-95873788D01*
X107697884Y-95305623D01*
X106446225Y-94943167D01*
X105151391Y-94796784D01*
X103850405Y-94870659D01*
X102580465Y-95162680D01*
X101377884Y-95664498D01*
X100277047Y-96361764D01*
X99309429Y-97234541D01*
X98502699Y-98257874D01*
X97879923Y-99402502D01*
X97458908Y-100635696D01*
X97251692Y-101922197D01*
X84575000Y-101922197D01*
X84575000Y-37575000D01*
X86941610Y-37575000D01*
X86533282Y-38090181D01*
X86533282Y-38090181D01*
G37*
X86533282Y-38090181D02*
X86054086Y-39022596D01*
X85765123Y-40030330D01*
X85677400Y-41074999D01*
X85794258Y-42116811D01*
X86111246Y-43116083D01*
X86616290Y-44034755D01*
X87290153Y-44837834D01*
X88107168Y-45494731D01*
X89036215Y-45980426D01*
X90041908Y-46276417D01*
X91085938Y-46371431D01*
X92128541Y-46261849D01*
X93130002Y-45951845D01*
X94052177Y-45453227D01*
X94859941Y-44784986D01*
X95522526Y-43972577D01*
X96014694Y-43046943D01*
X96317699Y-42043342D01*
X96420000Y-41000000D01*
X96417906Y-40850017D01*
X96286513Y-39809939D01*
X95955604Y-38815189D01*
X95437782Y-37903658D01*
X95154092Y-37575000D01*
X105679401Y-37575000D01*
X105246977Y-37863936D01*
X104863936Y-38246977D01*
X104562982Y-38697387D01*
X104355681Y-39197855D01*
X104250000Y-39729149D01*
X104250000Y-40270851D01*
X104355681Y-40802145D01*
X104562982Y-41302613D01*
X104750000Y-41582506D01*
X104750001Y-44917493D01*
X104562982Y-45197387D01*
X104355681Y-45697855D01*
X104250000Y-46229149D01*
X104250000Y-46770851D01*
X104355681Y-47302145D01*
X104385027Y-47372993D01*
X103508020Y-48250000D01*
X103110528Y-48250000D01*
X103000000Y-48239114D01*
X102858779Y-48253023D01*
X102558923Y-48282556D01*
X102134796Y-48411214D01*
X101743919Y-48620142D01*
X101401312Y-48901312D01*
X101120142Y-49243919D01*
X100911214Y-49634796D01*
X100782556Y-50058923D01*
X100739114Y-50500000D01*
X100750000Y-50610528D01*
X100750000Y-55250000D01*
X100448847Y-55250000D01*
X99956193Y-55347995D01*
X99492122Y-55540220D01*
X99074470Y-55819286D01*
X98719286Y-56174470D01*
X98440220Y-56592122D01*
X98291982Y-56949999D01*
X97871980Y-56949999D01*
X95309148Y-54387168D01*
X95238688Y-54301312D01*
X94896081Y-54020142D01*
X94505204Y-53811214D01*
X94081077Y-53682556D01*
X93750528Y-53650000D01*
X93750525Y-53650000D01*
X93640000Y-53639114D01*
X93529475Y-53650000D01*
X93142510Y-53650000D01*
X92995246Y-53551601D01*
X92512976Y-53351838D01*
X92001002Y-53250000D01*
X91478998Y-53250000D01*
X90967024Y-53351838D01*
X90484754Y-53551601D01*
X90050724Y-53841611D01*
X89681611Y-54210724D01*
X89391601Y-54644754D01*
X89191838Y-55127024D01*
X89090000Y-55638998D01*
X89090000Y-56161002D01*
X89191838Y-56672976D01*
X89391601Y-57155246D01*
X89681611Y-57589276D01*
X90050724Y-57958389D01*
X90484754Y-58248399D01*
X90967024Y-58448162D01*
X91478998Y-58550000D01*
X92001002Y-58550000D01*
X92512976Y-58448162D01*
X92861725Y-58303705D01*
X94110400Y-59552381D01*
X93468750Y-59552381D01*
X93468750Y-59382738D01*
X85593750Y-59382738D01*
X85593750Y-99817262D01*
X93468750Y-99817262D01*
X93468750Y-91647619D01*
X96985000Y-91647619D01*
X96985000Y-61456453D01*
X97050524Y-61449999D01*
X99189476Y-61449999D01*
X99300001Y-61460885D01*
X99410526Y-61449999D01*
X99410529Y-61449999D01*
X99741078Y-61417443D01*
X100165205Y-61288785D01*
X100556082Y-61079857D01*
X100750001Y-60920712D01*
X100750001Y-63889465D01*
X100739114Y-64000000D01*
X100775149Y-64365858D01*
X100782557Y-64441077D01*
X100803366Y-64509676D01*
X100911214Y-64865203D01*
X101120142Y-65256081D01*
X101310530Y-65488069D01*
X101401313Y-65598688D01*
X101487164Y-65669144D01*
X106487164Y-70669145D01*
X106743918Y-70879858D01*
X107134797Y-71088786D01*
X107558923Y-71217443D01*
X108000000Y-71260886D01*
X108441077Y-71217443D01*
X108865203Y-71088786D01*
X109031310Y-71000000D01*
X119301757Y-71000000D01*
X119400000Y-71009676D01*
X119498243Y-71000000D01*
X119498253Y-71000000D01*
X119792069Y-70971062D01*
X120169070Y-70856699D01*
X120516517Y-70670985D01*
X120618776Y-70587063D01*
X120644152Y-70714639D01*
X120828838Y-71160510D01*
X121022269Y-71450000D01*
X104410525Y-71450000D01*
X104299999Y-71439114D01*
X104189474Y-71450000D01*
X104189472Y-71450000D01*
X103858923Y-71482556D01*
X103453916Y-71605414D01*
X103434796Y-71611214D01*
X103043918Y-71820142D01*
X102788314Y-72029911D01*
X102701312Y-72101312D01*
X102630855Y-72187164D01*
X101237168Y-73580852D01*
X101151312Y-73651312D01*
X100870142Y-73993919D01*
X100661214Y-74384797D01*
X100532556Y-74808924D01*
X100505606Y-75082556D01*
X100489114Y-75250000D01*
X100500000Y-75360526D01*
X100500001Y-82639465D01*
X100489114Y-82750000D01*
X100527935Y-83144152D01*
X100532557Y-83191077D01*
X100547129Y-83239114D01*
X100661214Y-83615203D01*
X100835935Y-83942084D01*
X98487164Y-86290856D01*
X98401313Y-86361312D01*
X98330857Y-86447163D01*
X98330855Y-86447165D01*
X98120142Y-86703919D01*
X97911214Y-87094797D01*
X97881663Y-87192214D01*
X97782556Y-87518923D01*
X97750000Y-87849472D01*
X97739114Y-87960000D01*
X97750000Y-88070525D01*
X97750000Y-88120496D01*
X97731888Y-88138608D01*
X97412329Y-88616861D01*
X97192214Y-89148267D01*
X97080000Y-89712405D01*
X97080000Y-90287595D01*
X97192214Y-90851733D01*
X97412329Y-91383139D01*
X97731888Y-91861392D01*
X98138608Y-92268112D01*
X98616861Y-92587671D01*
X99148267Y-92807786D01*
X99712405Y-92920000D01*
X100287595Y-92920000D01*
X100851733Y-92807786D01*
X101383139Y-92587671D01*
X101861392Y-92268112D01*
X102268112Y-91861392D01*
X102500000Y-91514348D01*
X102731888Y-91861392D01*
X103138608Y-92268112D01*
X103616861Y-92587671D01*
X104148267Y-92807786D01*
X104712405Y-92920000D01*
X105287595Y-92920000D01*
X105851733Y-92807786D01*
X106383139Y-92587671D01*
X106861392Y-92268112D01*
X107268112Y-91861392D01*
X107502017Y-91511329D01*
X107555966Y-91445592D01*
X111834039Y-87167520D01*
X111839490Y-87171162D01*
X112285361Y-87355848D01*
X112758696Y-87450000D01*
X113241304Y-87450000D01*
X113714639Y-87355848D01*
X113970178Y-87250000D01*
X117263737Y-87250000D01*
X117282556Y-87441076D01*
X117411214Y-87865203D01*
X117620142Y-88256081D01*
X117901312Y-88598688D01*
X117987169Y-88669149D01*
X119580000Y-90261980D01*
X119580000Y-90287595D01*
X119692214Y-90851733D01*
X119912329Y-91383139D01*
X120231888Y-91861392D01*
X120638608Y-92268112D01*
X121116861Y-92587671D01*
X121648267Y-92807786D01*
X122212405Y-92920000D01*
X122787595Y-92920000D01*
X123351733Y-92807786D01*
X123883139Y-92587671D01*
X124361392Y-92268112D01*
X124768112Y-91861392D01*
X125000000Y-91514348D01*
X125231888Y-91861392D01*
X125638608Y-92268112D01*
X126116861Y-92587671D01*
X126648267Y-92807786D01*
X127212405Y-92920000D01*
X127787595Y-92920000D01*
X128351733Y-92807786D01*
X128883139Y-92587671D01*
X129361392Y-92268112D01*
X129768112Y-91861392D01*
X130087671Y-91383139D01*
X130307786Y-90851733D01*
X130420000Y-90287595D01*
X130420000Y-89712405D01*
X130307786Y-89148267D01*
X130087671Y-88616861D01*
X129768112Y-88138608D01*
X129361392Y-87731888D01*
X128883139Y-87412329D01*
X128351733Y-87192214D01*
X128090308Y-87140213D01*
X128340681Y-87064263D01*
X128506788Y-86975477D01*
X135300195Y-86975477D01*
X135401312Y-87098688D01*
X135743919Y-87379858D01*
X136134796Y-87588786D01*
X136558923Y-87717444D01*
X136889472Y-87750000D01*
X141250000Y-87750000D01*
X141250000Y-88389475D01*
X141239114Y-88500000D01*
X141250000Y-88610525D01*
X141250000Y-88610528D01*
X141282556Y-88941077D01*
X141352986Y-89173250D01*
X141411214Y-89365203D01*
X141620142Y-89756081D01*
X141776430Y-89946518D01*
X141901313Y-90098688D01*
X141987164Y-90169144D01*
X142080000Y-90261980D01*
X142080000Y-90287595D01*
X142192214Y-90851733D01*
X142412329Y-91383139D01*
X142731888Y-91861392D01*
X143138608Y-92268112D01*
X143616861Y-92587671D01*
X144148267Y-92807786D01*
X144712405Y-92920000D01*
X145287595Y-92920000D01*
X145851733Y-92807786D01*
X146383139Y-92587671D01*
X146861392Y-92268112D01*
X147268112Y-91861392D01*
X147500000Y-91514348D01*
X147731888Y-91861392D01*
X148138608Y-92268112D01*
X148616861Y-92587671D01*
X149148267Y-92807786D01*
X149712405Y-92920000D01*
X150287595Y-92920000D01*
X150851733Y-92807786D01*
X151383139Y-92587671D01*
X151861392Y-92268112D01*
X152268112Y-91861392D01*
X152587671Y-91383139D01*
X152807786Y-90851733D01*
X152920000Y-90287595D01*
X152920000Y-89712405D01*
X152807786Y-89148267D01*
X152587671Y-88616861D01*
X152268112Y-88138608D01*
X151879504Y-87750000D01*
X152389475Y-87750000D01*
X152500000Y-87760886D01*
X152610525Y-87750000D01*
X152610528Y-87750000D01*
X152941077Y-87717444D01*
X153365204Y-87588786D01*
X153756081Y-87379858D01*
X153804648Y-87340000D01*
X160130528Y-87340000D01*
X160461077Y-87307444D01*
X160650444Y-87250000D01*
X163750000Y-87250000D01*
X163750000Y-88389475D01*
X163739114Y-88500000D01*
X163750000Y-88610525D01*
X163750000Y-88610528D01*
X163771297Y-88826750D01*
X163782557Y-88941076D01*
X163911214Y-89365203D01*
X164120142Y-89756081D01*
X164276430Y-89946518D01*
X164401313Y-90098688D01*
X164487164Y-90169144D01*
X164580000Y-90261980D01*
X164580000Y-90287595D01*
X164692214Y-90851733D01*
X164912329Y-91383139D01*
X165231888Y-91861392D01*
X165638608Y-92268112D01*
X166116861Y-92587671D01*
X166648267Y-92807786D01*
X167212405Y-92920000D01*
X167787595Y-92920000D01*
X168351733Y-92807786D01*
X168883139Y-92587671D01*
X169361392Y-92268112D01*
X169768112Y-91861392D01*
X170000000Y-91514348D01*
X170231888Y-91861392D01*
X170638608Y-92268112D01*
X171116861Y-92587671D01*
X171648267Y-92807786D01*
X172212405Y-92920000D01*
X172787595Y-92920000D01*
X173351733Y-92807786D01*
X173883139Y-92587671D01*
X174361392Y-92268112D01*
X174768112Y-91861392D01*
X175087671Y-91383139D01*
X175307786Y-90851733D01*
X175420000Y-90287595D01*
X175420000Y-89712405D01*
X175307786Y-89148267D01*
X175087671Y-88616861D01*
X174768112Y-88138608D01*
X174361392Y-87731888D01*
X173883139Y-87412329D01*
X173491231Y-87249996D01*
X185750000Y-87249996D01*
X185750000Y-87889475D01*
X185739114Y-88000000D01*
X185750000Y-88110525D01*
X185750000Y-88110528D01*
X185782556Y-88441077D01*
X185847529Y-88655261D01*
X185911214Y-88865203D01*
X186120142Y-89256081D01*
X186257681Y-89423672D01*
X186401313Y-89598688D01*
X186487164Y-89669144D01*
X187080000Y-90261980D01*
X187080000Y-90287595D01*
X187192214Y-90851733D01*
X187412329Y-91383139D01*
X187731888Y-91861392D01*
X188138608Y-92268112D01*
X188616861Y-92587671D01*
X189148267Y-92807786D01*
X189712405Y-92920000D01*
X190287595Y-92920000D01*
X190851733Y-92807786D01*
X191383139Y-92587671D01*
X191861392Y-92268112D01*
X192268112Y-91861392D01*
X192500000Y-91514348D01*
X192731888Y-91861392D01*
X193138608Y-92268112D01*
X193616861Y-92587671D01*
X194148267Y-92807786D01*
X194712405Y-92920000D01*
X195287595Y-92920000D01*
X195851733Y-92807786D01*
X196383139Y-92587671D01*
X196861392Y-92268112D01*
X197268112Y-91861392D01*
X197587671Y-91383139D01*
X197807786Y-90851733D01*
X197920000Y-90287595D01*
X197920000Y-89712405D01*
X197807786Y-89148267D01*
X197587671Y-88616861D01*
X197268112Y-88138608D01*
X196861392Y-87731888D01*
X196383139Y-87412329D01*
X195991241Y-87250000D01*
X200029822Y-87250000D01*
X200285361Y-87355848D01*
X200758696Y-87450000D01*
X201241304Y-87450000D01*
X201714639Y-87355848D01*
X202160510Y-87171162D01*
X202561784Y-86903040D01*
X202903040Y-86561784D01*
X203000000Y-86416673D01*
X203096960Y-86561784D01*
X203438216Y-86903040D01*
X203839490Y-87171162D01*
X204285361Y-87355848D01*
X204758696Y-87450000D01*
X205241304Y-87450000D01*
X205714639Y-87355848D01*
X205970178Y-87250000D01*
X207766398Y-87250000D01*
X207876923Y-87260886D01*
X207987448Y-87250000D01*
X207987451Y-87250000D01*
X208318000Y-87217444D01*
X208742127Y-87088786D01*
X209133004Y-86879858D01*
X209475611Y-86598688D01*
X209546072Y-86512831D01*
X210004000Y-86054904D01*
X210481078Y-86149800D01*
X211010922Y-86149800D01*
X211530586Y-86046433D01*
X212020098Y-85843670D01*
X212225000Y-85706759D01*
X212225000Y-103735569D01*
X211878227Y-103464640D01*
X210942489Y-102991965D01*
X209932762Y-102710044D01*
X208887506Y-102629616D01*
X207846536Y-102753744D01*
X206849500Y-103077701D01*
X205934377Y-103589146D01*
X205136022Y-104268599D01*
X204484844Y-105090181D01*
X204005648Y-106022596D01*
X203716685Y-107030330D01*
X203628962Y-108074999D01*
X203745820Y-109116811D01*
X204062808Y-110116083D01*
X204567852Y-111034755D01*
X204727486Y-111225000D01*
X95316655Y-111225000D01*
X95522526Y-110972577D01*
X96014694Y-110046943D01*
X96317699Y-109043342D01*
X96420000Y-108000000D01*
X96417906Y-107850017D01*
X96286513Y-106809939D01*
X95955604Y-105815189D01*
X95437782Y-104903658D01*
X94752772Y-104110066D01*
X93926665Y-103464640D01*
X92990927Y-102991965D01*
X91981200Y-102710044D01*
X90935944Y-102629616D01*
X89894974Y-102753744D01*
X88897938Y-103077701D01*
X87982815Y-103589146D01*
X87184460Y-104268599D01*
X86533282Y-105090181D01*
X86054086Y-106022596D01*
X85765123Y-107030330D01*
X85677400Y-108074999D01*
X85794258Y-109116811D01*
X86111246Y-110116083D01*
X86616290Y-111034755D01*
X86775924Y-111225000D01*
X84575000Y-111225000D01*
X84575000Y-101922197D01*
X97251692Y-101922197D01*
X97264200Y-103225219D01*
X97496076Y-104507505D01*
X97940687Y-105732390D01*
X98585322Y-106864852D01*
X99411549Y-107872508D01*
X100395744Y-108726549D01*
X101509764Y-109402553D01*
X102721757Y-109881192D01*
X103997069Y-110148780D01*
X105299234Y-110197666D01*
X106591019Y-110026452D01*
X107835488Y-109640034D01*
X108997059Y-109049461D01*
X110042518Y-108271618D01*
X110941972Y-107328747D01*
X111669703Y-106247808D01*
X112204903Y-105059707D01*
X112532270Y-103798416D01*
X112642442Y-102500000D01*
X112641022Y-102352060D01*
X112596221Y-101922197D01*
X119751692Y-101922197D01*
X119764200Y-103225219D01*
X119996076Y-104507505D01*
X120440687Y-105732390D01*
X121085322Y-106864852D01*
X121911549Y-107872508D01*
X122895744Y-108726549D01*
X124009764Y-109402553D01*
X125221757Y-109881192D01*
X126497069Y-110148780D01*
X127799234Y-110197666D01*
X129091019Y-110026452D01*
X130335488Y-109640034D01*
X131497059Y-109049461D01*
X132542518Y-108271618D01*
X133441972Y-107328747D01*
X134169703Y-106247808D01*
X134704903Y-105059707D01*
X135032270Y-103798416D01*
X135142442Y-102500000D01*
X135141022Y-102352060D01*
X135096221Y-101922197D01*
X142251692Y-101922197D01*
X142264200Y-103225219D01*
X142496076Y-104507505D01*
X142940687Y-105732390D01*
X143585322Y-106864852D01*
X144411549Y-107872508D01*
X145395744Y-108726549D01*
X146509764Y-109402553D01*
X147721757Y-109881192D01*
X148997069Y-110148780D01*
X150299234Y-110197666D01*
X151591019Y-110026452D01*
X152835488Y-109640034D01*
X153997059Y-109049461D01*
X155042518Y-108271618D01*
X155941972Y-107328747D01*
X156669703Y-106247808D01*
X157204903Y-105059707D01*
X157532270Y-103798416D01*
X157642442Y-102500000D01*
X157641022Y-102352060D01*
X157601432Y-101972197D01*
X164815471Y-101972197D01*
X164827979Y-103275219D01*
X165059855Y-104557505D01*
X165504466Y-105782390D01*
X166149101Y-106914852D01*
X166975328Y-107922508D01*
X167959523Y-108776549D01*
X169073543Y-109452553D01*
X170285536Y-109931192D01*
X171560848Y-110198780D01*
X172863013Y-110247666D01*
X174154798Y-110076452D01*
X175399267Y-109690034D01*
X176560838Y-109099461D01*
X177606297Y-108321618D01*
X178505751Y-107378747D01*
X179233482Y-106297808D01*
X179768682Y-105109707D01*
X180096049Y-103848416D01*
X180206221Y-102550000D01*
X180204801Y-102402060D01*
X180154789Y-101922197D01*
X187379250Y-101922197D01*
X187391758Y-103225219D01*
X187623634Y-104507505D01*
X188068245Y-105732390D01*
X188712880Y-106864852D01*
X189539107Y-107872508D01*
X190523302Y-108726549D01*
X191637322Y-109402553D01*
X192849315Y-109881192D01*
X194124627Y-110148780D01*
X195426792Y-110197666D01*
X196718577Y-110026452D01*
X197963046Y-109640034D01*
X199124617Y-109049461D01*
X200170076Y-108271618D01*
X201069530Y-107328747D01*
X201797261Y-106247808D01*
X202332461Y-105059707D01*
X202659828Y-103798416D01*
X202770000Y-102500000D01*
X202768580Y-102352060D01*
X202633502Y-101055998D01*
X202281982Y-99801225D01*
X201724072Y-98623617D01*
X200975723Y-97556847D01*
X200058334Y-96631418D01*
X198998136Y-95873788D01*
X197825442Y-95305623D01*
X196573783Y-94943167D01*
X195278949Y-94796784D01*
X193977963Y-94870659D01*
X192708023Y-95162680D01*
X191505442Y-95664498D01*
X190404605Y-96361764D01*
X189436987Y-97234541D01*
X188630257Y-98257874D01*
X188007481Y-99402502D01*
X187586466Y-100635696D01*
X187379250Y-101922197D01*
X180154789Y-101922197D01*
X180069723Y-101105998D01*
X179718203Y-99851225D01*
X179160293Y-98673617D01*
X178411944Y-97606847D01*
X177494555Y-96681418D01*
X176434357Y-95923788D01*
X175261663Y-95355623D01*
X174010004Y-94993167D01*
X172715170Y-94846784D01*
X171414184Y-94920659D01*
X170144244Y-95212680D01*
X168941663Y-95714498D01*
X167840826Y-96411764D01*
X166873208Y-97284541D01*
X166066478Y-98307874D01*
X165443702Y-99452502D01*
X165022687Y-100685696D01*
X164815471Y-101972197D01*
X157601432Y-101972197D01*
X157505944Y-101055998D01*
X157154424Y-99801225D01*
X156596514Y-98623617D01*
X155848165Y-97556847D01*
X154930776Y-96631418D01*
X153870578Y-95873788D01*
X152697884Y-95305623D01*
X151446225Y-94943167D01*
X150151391Y-94796784D01*
X148850405Y-94870659D01*
X147580465Y-95162680D01*
X146377884Y-95664498D01*
X145277047Y-96361764D01*
X144309429Y-97234541D01*
X143502699Y-98257874D01*
X142879923Y-99402502D01*
X142458908Y-100635696D01*
X142251692Y-101922197D01*
X135096221Y-101922197D01*
X135005944Y-101055998D01*
X134654424Y-99801225D01*
X134096514Y-98623617D01*
X133348165Y-97556847D01*
X132430776Y-96631418D01*
X131370578Y-95873788D01*
X130197884Y-95305623D01*
X128946225Y-94943167D01*
X127651391Y-94796784D01*
X126350405Y-94870659D01*
X125080465Y-95162680D01*
X123877884Y-95664498D01*
X122777047Y-96361764D01*
X121809429Y-97234541D01*
X121002699Y-98257874D01*
X120379923Y-99402502D01*
X119958908Y-100635696D01*
X119751692Y-101922197D01*
X112596221Y-101922197D01*
X112505944Y-101055998D01*
X112154424Y-99801225D01*
X111596514Y-98623617D01*
X110848165Y-97556847D01*
X109930776Y-96631418D01*
X108870578Y-95873788D01*
X107697884Y-95305623D01*
X106446225Y-94943167D01*
X105151391Y-94796784D01*
X103850405Y-94870659D01*
X102580465Y-95162680D01*
X101377884Y-95664498D01*
X100277047Y-96361764D01*
X99309429Y-97234541D01*
X98502699Y-98257874D01*
X97879923Y-99402502D01*
X97458908Y-100635696D01*
X97251692Y-101922197D01*
X84575000Y-101922197D01*
X84575000Y-37575000D01*
X86941610Y-37575000D01*
X86533282Y-38090181D01*
G36*
X185644152Y-59214639D02*
G01*
X185750000Y-59470178D01*
X185750000Y-62121693D01*
X185739114Y-62232218D01*
X185750000Y-62342743D01*
X185750000Y-62342745D01*
X185782556Y-62673294D01*
X185911214Y-63097421D01*
X186120142Y-63488299D01*
X186401312Y-63830906D01*
X186487168Y-63901366D01*
X189250001Y-66664200D01*
X189250000Y-69889474D01*
X189239114Y-70000000D01*
X189250000Y-70110525D01*
X189250000Y-70110527D01*
X189282556Y-70441076D01*
X189411214Y-70865203D01*
X189620142Y-71256081D01*
X189901312Y-71598688D01*
X189987169Y-71669149D01*
X197830854Y-79512835D01*
X197901312Y-79598688D01*
X197987163Y-79669144D01*
X197987164Y-79669145D01*
X198069327Y-79736574D01*
X198243919Y-79879858D01*
X198634796Y-80088786D01*
X199058923Y-80217444D01*
X199389472Y-80250000D01*
X199389481Y-80250000D01*
X199499999Y-80260885D01*
X199610517Y-80250000D01*
X203029822Y-80250000D01*
X203285361Y-80355848D01*
X203758696Y-80450000D01*
X204241304Y-80450000D01*
X204714639Y-80355848D01*
X205160510Y-80171162D01*
X205561784Y-79903040D01*
X205903040Y-79561784D01*
X206171162Y-79160510D01*
X206355848Y-78714639D01*
X206450000Y-78241304D01*
X206450000Y-77758696D01*
X206355848Y-77285361D01*
X206171162Y-76839490D01*
X205903040Y-76438216D01*
X205561784Y-76096960D01*
X205160510Y-75828838D01*
X204714639Y-75644152D01*
X204241304Y-75550000D01*
X203758696Y-75550000D01*
X203285361Y-75644152D01*
X203029822Y-75750000D01*
X200431981Y-75750000D01*
X196740447Y-72058467D01*
X196800000Y-72058467D01*
X197143060Y-72024679D01*
X197472936Y-71924612D01*
X197567733Y-71873942D01*
X197756193Y-71952005D01*
X197773459Y-71955439D01*
X199350674Y-73532655D01*
X199433261Y-73687165D01*
X199522362Y-73853861D01*
X199803532Y-74196468D01*
X200146139Y-74477638D01*
X200537016Y-74686566D01*
X200961143Y-74815224D01*
X201402220Y-74858666D01*
X201512748Y-74847780D01*
X202255105Y-74847780D01*
X202655595Y-75115379D01*
X203172611Y-75329535D01*
X203721473Y-75438710D01*
X204281087Y-75438710D01*
X204829949Y-75329535D01*
X205346965Y-75115379D01*
X205812267Y-74804474D01*
X206207974Y-74408767D01*
X206518879Y-73943465D01*
X206733035Y-73426449D01*
X206768147Y-73249931D01*
X206917953Y-73611597D01*
X207175071Y-73996401D01*
X207502319Y-74323649D01*
X207887123Y-74580767D01*
X208314694Y-74757872D01*
X208768600Y-74848160D01*
X209231400Y-74848160D01*
X209685306Y-74757872D01*
X210112877Y-74580767D01*
X210249680Y-74489358D01*
X210386483Y-74580767D01*
X210814054Y-74757872D01*
X211267960Y-74848160D01*
X211730760Y-74848160D01*
X212184666Y-74757872D01*
X212225000Y-74741165D01*
X212225000Y-78043020D01*
X211277010Y-77095030D01*
X211171162Y-76839490D01*
X210903040Y-76438216D01*
X210561784Y-76096960D01*
X210160510Y-75828838D01*
X209714639Y-75644152D01*
X209241304Y-75550000D01*
X208758696Y-75550000D01*
X208285361Y-75644152D01*
X207839490Y-75828838D01*
X207438216Y-76096960D01*
X207096960Y-76438216D01*
X206828838Y-76839490D01*
X206644152Y-77285361D01*
X206550000Y-77758696D01*
X206550000Y-78241304D01*
X206644152Y-78714639D01*
X206828838Y-79160510D01*
X207096960Y-79561784D01*
X207438216Y-79903040D01*
X207839490Y-80171162D01*
X208095030Y-80277010D01*
X208337226Y-80519207D01*
X208310200Y-80655078D01*
X208310200Y-81184922D01*
X208366905Y-81469999D01*
X208160841Y-81580142D01*
X207941585Y-81760081D01*
X207818235Y-81861312D01*
X207747778Y-81947164D01*
X206944943Y-82750000D01*
X205970178Y-82750000D01*
X205714639Y-82644152D01*
X205241304Y-82550000D01*
X204758696Y-82550000D01*
X204285361Y-82644152D01*
X203839490Y-82828838D01*
X203438216Y-83096960D01*
X203096960Y-83438216D01*
X203000000Y-83583327D01*
X202903040Y-83438216D01*
X202561784Y-83096960D01*
X202160510Y-82828838D01*
X201714639Y-82644152D01*
X201241304Y-82550000D01*
X200758696Y-82550000D01*
X200285361Y-82644152D01*
X200029822Y-82750000D01*
X194750000Y-82750000D01*
X194750000Y-80850525D01*
X194760886Y-80739999D01*
X194745468Y-80583461D01*
X194717444Y-80298923D01*
X194588786Y-79874796D01*
X194568821Y-79837444D01*
X194379858Y-79483918D01*
X194223046Y-79292843D01*
X194098688Y-79141312D01*
X194012831Y-79070851D01*
X192679146Y-77737166D01*
X192608688Y-77651312D01*
X192266081Y-77370142D01*
X191875204Y-77161214D01*
X191451077Y-77032556D01*
X191120528Y-77000000D01*
X191120525Y-77000000D01*
X191010000Y-76989114D01*
X190899475Y-77000000D01*
X187416000Y-77000000D01*
X187416000Y-72730731D01*
X187452005Y-72643807D01*
X187550000Y-72151153D01*
X187550000Y-71648847D01*
X187452005Y-71156193D01*
X187259780Y-70692122D01*
X186980714Y-70274470D01*
X186625530Y-69919286D01*
X186207878Y-69640220D01*
X185743807Y-69447995D01*
X185251153Y-69350000D01*
X184748847Y-69350000D01*
X184256193Y-69447995D01*
X183792122Y-69640220D01*
X183500000Y-69835410D01*
X183207878Y-69640220D01*
X182743807Y-69447995D01*
X182251153Y-69350000D01*
X181748847Y-69350000D01*
X181256193Y-69447995D01*
X180792122Y-69640220D01*
X180374470Y-69919286D01*
X180019286Y-70274470D01*
X179740220Y-70692122D01*
X179547995Y-71156193D01*
X179450000Y-71648847D01*
X179450000Y-72151153D01*
X179547995Y-72643807D01*
X179740220Y-73107878D01*
X179750001Y-73122516D01*
X179750000Y-75513019D01*
X179513020Y-75750000D01*
X177222515Y-75750000D01*
X177207878Y-75740220D01*
X176743807Y-75547995D01*
X176251153Y-75450000D01*
X175748847Y-75450000D01*
X175256193Y-75547995D01*
X174792122Y-75740220D01*
X174374470Y-76019286D01*
X174019286Y-76374470D01*
X173740220Y-76792122D01*
X173547995Y-77256193D01*
X173544561Y-77273459D01*
X172118053Y-78699967D01*
X162812936Y-78699967D01*
X165062904Y-76450000D01*
X165349475Y-76450000D01*
X165460000Y-76460886D01*
X165570525Y-76450000D01*
X165570528Y-76450000D01*
X165901077Y-76417444D01*
X166325204Y-76288786D01*
X166716081Y-76079858D01*
X167058688Y-75798688D01*
X167129149Y-75712831D01*
X168098588Y-74743392D01*
X168143902Y-74773670D01*
X168633414Y-74976433D01*
X169153078Y-75079800D01*
X169682922Y-75079800D01*
X170202586Y-74976433D01*
X170692098Y-74773670D01*
X171132648Y-74479304D01*
X171507304Y-74104648D01*
X171801670Y-73664098D01*
X172004433Y-73174586D01*
X172107800Y-72654922D01*
X172107800Y-72125078D01*
X172004433Y-71605414D01*
X171801670Y-71115902D01*
X171507304Y-70675352D01*
X171132648Y-70300696D01*
X170692098Y-70006330D01*
X170262398Y-69828342D01*
X170762835Y-69873885D01*
X171675726Y-69777937D01*
X172552595Y-69506500D01*
X173360042Y-69069915D01*
X174067311Y-68484811D01*
X174647463Y-67773475D01*
X175078401Y-66962999D01*
X175343709Y-66084257D01*
X175433282Y-65170718D01*
X175431448Y-65039395D01*
X175316402Y-64128713D01*
X175026662Y-63257721D01*
X174573263Y-62459594D01*
X173973475Y-61764734D01*
X173250145Y-61199606D01*
X172430822Y-60785736D01*
X171546716Y-60538889D01*
X170631502Y-60468468D01*
X169720039Y-60577153D01*
X168847046Y-60860806D01*
X168045773Y-61308622D01*
X167346742Y-61903544D01*
X166776578Y-62622912D01*
X166356999Y-63439324D01*
X166103986Y-64321686D01*
X166027176Y-65236386D01*
X166129496Y-66148585D01*
X166407047Y-67023538D01*
X166849259Y-67827917D01*
X167439286Y-68531084D01*
X168154656Y-69106257D01*
X168968120Y-69531525D01*
X169541228Y-69700200D01*
X169153078Y-69700200D01*
X168633414Y-69803567D01*
X168143902Y-70006330D01*
X168037426Y-70077475D01*
X167519529Y-70054826D01*
X167360000Y-70039114D01*
X167188399Y-70056015D01*
X167016225Y-70065403D01*
X166968227Y-70077701D01*
X166918923Y-70082557D01*
X166753920Y-70132610D01*
X166586882Y-70175408D01*
X166542209Y-70196832D01*
X166494797Y-70211214D01*
X166342723Y-70292499D01*
X166187250Y-70367059D01*
X166147616Y-70396785D01*
X166103919Y-70420142D01*
X165970624Y-70529535D01*
X165832686Y-70632992D01*
X165725682Y-70752338D01*
X164528020Y-71950000D01*
X164241448Y-71950000D01*
X164130922Y-71939114D01*
X164020397Y-71950000D01*
X164020395Y-71950000D01*
X163689846Y-71982556D01*
X163298358Y-72101313D01*
X163265719Y-72111214D01*
X162874841Y-72320142D01*
X162618087Y-72530855D01*
X162532235Y-72601312D01*
X162461779Y-72687163D01*
X160098943Y-75050000D01*
X157800263Y-75050000D01*
X157781444Y-74858923D01*
X157680901Y-74527479D01*
X157957081Y-74379858D01*
X158299688Y-74098688D01*
X158580858Y-73756081D01*
X158789786Y-73365204D01*
X158918444Y-72941077D01*
X158961886Y-72500000D01*
X158918444Y-72058923D01*
X158789786Y-71634796D01*
X158658727Y-71389602D01*
X158679786Y-71350203D01*
X158808443Y-70926077D01*
X158851886Y-70485001D01*
X158808443Y-70043924D01*
X158693514Y-69665052D01*
X158853786Y-69365204D01*
X158982444Y-68941077D01*
X159025886Y-68500000D01*
X158982444Y-68058923D01*
X158853786Y-67634796D01*
X158644858Y-67243919D01*
X158363688Y-66901312D01*
X158021081Y-66620142D01*
X157984790Y-66600744D01*
X158003786Y-66565204D01*
X158132444Y-66141077D01*
X158175886Y-65700000D01*
X158132444Y-65258923D01*
X158003786Y-64834796D01*
X157794858Y-64443919D01*
X157513688Y-64101312D01*
X157171081Y-63820142D01*
X156780204Y-63611214D01*
X156743299Y-63600019D01*
X163244369Y-63600019D01*
X163349981Y-63610421D01*
X163455593Y-63600019D01*
X163771455Y-63568909D01*
X164176731Y-63445970D01*
X164550236Y-63246328D01*
X164877616Y-62977654D01*
X164944947Y-62895611D01*
X168940559Y-58900000D01*
X185581567Y-58900000D01*
X185644152Y-59214639D01*
X185644152Y-59214639D01*
G37*
X185644152Y-59214639D02*
X185750000Y-59470178D01*
X185750000Y-62121693D01*
X185739114Y-62232218D01*
X185750000Y-62342743D01*
X185750000Y-62342745D01*
X185782556Y-62673294D01*
X185911214Y-63097421D01*
X186120142Y-63488299D01*
X186401312Y-63830906D01*
X186487168Y-63901366D01*
X189250001Y-66664200D01*
X189250000Y-69889474D01*
X189239114Y-70000000D01*
X189250000Y-70110525D01*
X189250000Y-70110527D01*
X189282556Y-70441076D01*
X189411214Y-70865203D01*
X189620142Y-71256081D01*
X189901312Y-71598688D01*
X189987169Y-71669149D01*
X197830854Y-79512835D01*
X197901312Y-79598688D01*
X197987163Y-79669144D01*
X197987164Y-79669145D01*
X198069327Y-79736574D01*
X198243919Y-79879858D01*
X198634796Y-80088786D01*
X199058923Y-80217444D01*
X199389472Y-80250000D01*
X199389481Y-80250000D01*
X199499999Y-80260885D01*
X199610517Y-80250000D01*
X203029822Y-80250000D01*
X203285361Y-80355848D01*
X203758696Y-80450000D01*
X204241304Y-80450000D01*
X204714639Y-80355848D01*
X205160510Y-80171162D01*
X205561784Y-79903040D01*
X205903040Y-79561784D01*
X206171162Y-79160510D01*
X206355848Y-78714639D01*
X206450000Y-78241304D01*
X206450000Y-77758696D01*
X206355848Y-77285361D01*
X206171162Y-76839490D01*
X205903040Y-76438216D01*
X205561784Y-76096960D01*
X205160510Y-75828838D01*
X204714639Y-75644152D01*
X204241304Y-75550000D01*
X203758696Y-75550000D01*
X203285361Y-75644152D01*
X203029822Y-75750000D01*
X200431981Y-75750000D01*
X196740447Y-72058467D01*
X196800000Y-72058467D01*
X197143060Y-72024679D01*
X197472936Y-71924612D01*
X197567733Y-71873942D01*
X197756193Y-71952005D01*
X197773459Y-71955439D01*
X199350674Y-73532655D01*
X199433261Y-73687165D01*
X199522362Y-73853861D01*
X199803532Y-74196468D01*
X200146139Y-74477638D01*
X200537016Y-74686566D01*
X200961143Y-74815224D01*
X201402220Y-74858666D01*
X201512748Y-74847780D01*
X202255105Y-74847780D01*
X202655595Y-75115379D01*
X203172611Y-75329535D01*
X203721473Y-75438710D01*
X204281087Y-75438710D01*
X204829949Y-75329535D01*
X205346965Y-75115379D01*
X205812267Y-74804474D01*
X206207974Y-74408767D01*
X206518879Y-73943465D01*
X206733035Y-73426449D01*
X206768147Y-73249931D01*
X206917953Y-73611597D01*
X207175071Y-73996401D01*
X207502319Y-74323649D01*
X207887123Y-74580767D01*
X208314694Y-74757872D01*
X208768600Y-74848160D01*
X209231400Y-74848160D01*
X209685306Y-74757872D01*
X210112877Y-74580767D01*
X210249680Y-74489358D01*
X210386483Y-74580767D01*
X210814054Y-74757872D01*
X211267960Y-74848160D01*
X211730760Y-74848160D01*
X212184666Y-74757872D01*
X212225000Y-74741165D01*
X212225000Y-78043020D01*
X211277010Y-77095030D01*
X211171162Y-76839490D01*
X210903040Y-76438216D01*
X210561784Y-76096960D01*
X210160510Y-75828838D01*
X209714639Y-75644152D01*
X209241304Y-75550000D01*
X208758696Y-75550000D01*
X208285361Y-75644152D01*
X207839490Y-75828838D01*
X207438216Y-76096960D01*
X207096960Y-76438216D01*
X206828838Y-76839490D01*
X206644152Y-77285361D01*
X206550000Y-77758696D01*
X206550000Y-78241304D01*
X206644152Y-78714639D01*
X206828838Y-79160510D01*
X207096960Y-79561784D01*
X207438216Y-79903040D01*
X207839490Y-80171162D01*
X208095030Y-80277010D01*
X208337226Y-80519207D01*
X208310200Y-80655078D01*
X208310200Y-81184922D01*
X208366905Y-81469999D01*
X208160841Y-81580142D01*
X207941585Y-81760081D01*
X207818235Y-81861312D01*
X207747778Y-81947164D01*
X206944943Y-82750000D01*
X205970178Y-82750000D01*
X205714639Y-82644152D01*
X205241304Y-82550000D01*
X204758696Y-82550000D01*
X204285361Y-82644152D01*
X203839490Y-82828838D01*
X203438216Y-83096960D01*
X203096960Y-83438216D01*
X203000000Y-83583327D01*
X202903040Y-83438216D01*
X202561784Y-83096960D01*
X202160510Y-82828838D01*
X201714639Y-82644152D01*
X201241304Y-82550000D01*
X200758696Y-82550000D01*
X200285361Y-82644152D01*
X200029822Y-82750000D01*
X194750000Y-82750000D01*
X194750000Y-80850525D01*
X194760886Y-80739999D01*
X194745468Y-80583461D01*
X194717444Y-80298923D01*
X194588786Y-79874796D01*
X194568821Y-79837444D01*
X194379858Y-79483918D01*
X194223046Y-79292843D01*
X194098688Y-79141312D01*
X194012831Y-79070851D01*
X192679146Y-77737166D01*
X192608688Y-77651312D01*
X192266081Y-77370142D01*
X191875204Y-77161214D01*
X191451077Y-77032556D01*
X191120528Y-77000000D01*
X191120525Y-77000000D01*
X191010000Y-76989114D01*
X190899475Y-77000000D01*
X187416000Y-77000000D01*
X187416000Y-72730731D01*
X187452005Y-72643807D01*
X187550000Y-72151153D01*
X187550000Y-71648847D01*
X187452005Y-71156193D01*
X187259780Y-70692122D01*
X186980714Y-70274470D01*
X186625530Y-69919286D01*
X186207878Y-69640220D01*
X185743807Y-69447995D01*
X185251153Y-69350000D01*
X184748847Y-69350000D01*
X184256193Y-69447995D01*
X183792122Y-69640220D01*
X183500000Y-69835410D01*
X183207878Y-69640220D01*
X182743807Y-69447995D01*
X182251153Y-69350000D01*
X181748847Y-69350000D01*
X181256193Y-69447995D01*
X180792122Y-69640220D01*
X180374470Y-69919286D01*
X180019286Y-70274470D01*
X179740220Y-70692122D01*
X179547995Y-71156193D01*
X179450000Y-71648847D01*
X179450000Y-72151153D01*
X179547995Y-72643807D01*
X179740220Y-73107878D01*
X179750001Y-73122516D01*
X179750000Y-75513019D01*
X179513020Y-75750000D01*
X177222515Y-75750000D01*
X177207878Y-75740220D01*
X176743807Y-75547995D01*
X176251153Y-75450000D01*
X175748847Y-75450000D01*
X175256193Y-75547995D01*
X174792122Y-75740220D01*
X174374470Y-76019286D01*
X174019286Y-76374470D01*
X173740220Y-76792122D01*
X173547995Y-77256193D01*
X173544561Y-77273459D01*
X172118053Y-78699967D01*
X162812936Y-78699967D01*
X165062904Y-76450000D01*
X165349475Y-76450000D01*
X165460000Y-76460886D01*
X165570525Y-76450000D01*
X165570528Y-76450000D01*
X165901077Y-76417444D01*
X166325204Y-76288786D01*
X166716081Y-76079858D01*
X167058688Y-75798688D01*
X167129149Y-75712831D01*
X168098588Y-74743392D01*
X168143902Y-74773670D01*
X168633414Y-74976433D01*
X169153078Y-75079800D01*
X169682922Y-75079800D01*
X170202586Y-74976433D01*
X170692098Y-74773670D01*
X171132648Y-74479304D01*
X171507304Y-74104648D01*
X171801670Y-73664098D01*
X172004433Y-73174586D01*
X172107800Y-72654922D01*
X172107800Y-72125078D01*
X172004433Y-71605414D01*
X171801670Y-71115902D01*
X171507304Y-70675352D01*
X171132648Y-70300696D01*
X170692098Y-70006330D01*
X170262398Y-69828342D01*
X170762835Y-69873885D01*
X171675726Y-69777937D01*
X172552595Y-69506500D01*
X173360042Y-69069915D01*
X174067311Y-68484811D01*
X174647463Y-67773475D01*
X175078401Y-66962999D01*
X175343709Y-66084257D01*
X175433282Y-65170718D01*
X175431448Y-65039395D01*
X175316402Y-64128713D01*
X175026662Y-63257721D01*
X174573263Y-62459594D01*
X173973475Y-61764734D01*
X173250145Y-61199606D01*
X172430822Y-60785736D01*
X171546716Y-60538889D01*
X170631502Y-60468468D01*
X169720039Y-60577153D01*
X168847046Y-60860806D01*
X168045773Y-61308622D01*
X167346742Y-61903544D01*
X166776578Y-62622912D01*
X166356999Y-63439324D01*
X166103986Y-64321686D01*
X166027176Y-65236386D01*
X166129496Y-66148585D01*
X166407047Y-67023538D01*
X166849259Y-67827917D01*
X167439286Y-68531084D01*
X168154656Y-69106257D01*
X168968120Y-69531525D01*
X169541228Y-69700200D01*
X169153078Y-69700200D01*
X168633414Y-69803567D01*
X168143902Y-70006330D01*
X168037426Y-70077475D01*
X167519529Y-70054826D01*
X167360000Y-70039114D01*
X167188399Y-70056015D01*
X167016225Y-70065403D01*
X166968227Y-70077701D01*
X166918923Y-70082557D01*
X166753920Y-70132610D01*
X166586882Y-70175408D01*
X166542209Y-70196832D01*
X166494797Y-70211214D01*
X166342723Y-70292499D01*
X166187250Y-70367059D01*
X166147616Y-70396785D01*
X166103919Y-70420142D01*
X165970624Y-70529535D01*
X165832686Y-70632992D01*
X165725682Y-70752338D01*
X164528020Y-71950000D01*
X164241448Y-71950000D01*
X164130922Y-71939114D01*
X164020397Y-71950000D01*
X164020395Y-71950000D01*
X163689846Y-71982556D01*
X163298358Y-72101313D01*
X163265719Y-72111214D01*
X162874841Y-72320142D01*
X162618087Y-72530855D01*
X162532235Y-72601312D01*
X162461779Y-72687163D01*
X160098943Y-75050000D01*
X157800263Y-75050000D01*
X157781444Y-74858923D01*
X157680901Y-74527479D01*
X157957081Y-74379858D01*
X158299688Y-74098688D01*
X158580858Y-73756081D01*
X158789786Y-73365204D01*
X158918444Y-72941077D01*
X158961886Y-72500000D01*
X158918444Y-72058923D01*
X158789786Y-71634796D01*
X158658727Y-71389602D01*
X158679786Y-71350203D01*
X158808443Y-70926077D01*
X158851886Y-70485001D01*
X158808443Y-70043924D01*
X158693514Y-69665052D01*
X158853786Y-69365204D01*
X158982444Y-68941077D01*
X159025886Y-68500000D01*
X158982444Y-68058923D01*
X158853786Y-67634796D01*
X158644858Y-67243919D01*
X158363688Y-66901312D01*
X158021081Y-66620142D01*
X157984790Y-66600744D01*
X158003786Y-66565204D01*
X158132444Y-66141077D01*
X158175886Y-65700000D01*
X158132444Y-65258923D01*
X158003786Y-64834796D01*
X157794858Y-64443919D01*
X157513688Y-64101312D01*
X157171081Y-63820142D01*
X156780204Y-63611214D01*
X156743299Y-63600019D01*
X163244369Y-63600019D01*
X163349981Y-63610421D01*
X163455593Y-63600019D01*
X163771455Y-63568909D01*
X164176731Y-63445970D01*
X164550236Y-63246328D01*
X164877616Y-62977654D01*
X164944947Y-62895611D01*
X168940559Y-58900000D01*
X185581567Y-58900000D01*
X185644152Y-59214639D01*
G36*
X139486897Y-78239887D02*
G01*
X139626460Y-78699967D01*
X139293540Y-78699967D01*
X139433103Y-78239887D01*
X139460000Y-77966800D01*
X139486897Y-78239887D01*
X139486897Y-78239887D01*
G37*
X139486897Y-78239887D02*
X139626460Y-78699967D01*
X139293540Y-78699967D01*
X139433103Y-78239887D01*
X139460000Y-77966800D01*
X139486897Y-78239887D01*
G36*
X139550001Y-77032086D02*
G01*
X139486897Y-77240113D01*
X139460000Y-77513200D01*
X139433103Y-77240113D01*
X139287292Y-76759436D01*
X139050506Y-76316441D01*
X138731847Y-75928153D01*
X138343559Y-75609494D01*
X137900564Y-75372708D01*
X137419887Y-75226897D01*
X137045269Y-75190000D01*
X136794731Y-75190000D01*
X136760236Y-75193398D01*
X136745029Y-75038998D01*
X136717444Y-74758923D01*
X136588786Y-74334796D01*
X136379858Y-73943919D01*
X136098688Y-73601312D01*
X136012831Y-73530851D01*
X134735635Y-72253655D01*
X139550000Y-72253655D01*
X139550001Y-77032086D01*
X139550001Y-77032086D01*
G37*
X139550001Y-77032086D02*
X139486897Y-77240113D01*
X139460000Y-77513200D01*
X139433103Y-77240113D01*
X139287292Y-76759436D01*
X139050506Y-76316441D01*
X138731847Y-75928153D01*
X138343559Y-75609494D01*
X137900564Y-75372708D01*
X137419887Y-75226897D01*
X137045269Y-75190000D01*
X136794731Y-75190000D01*
X136760236Y-75193398D01*
X136745029Y-75038998D01*
X136717444Y-74758923D01*
X136588786Y-74334796D01*
X136379858Y-73943919D01*
X136098688Y-73601312D01*
X136012831Y-73530851D01*
X134735635Y-72253655D01*
X139550000Y-72253655D01*
X139550001Y-77032086D01*
G36*
X206917953Y-63614157D02*
G01*
X207175071Y-63998961D01*
X207502319Y-64326209D01*
X207887123Y-64583327D01*
X208314694Y-64760432D01*
X208768600Y-64850720D01*
X209231400Y-64850720D01*
X209685306Y-64760432D01*
X210112877Y-64583327D01*
X210249680Y-64491918D01*
X210386483Y-64583327D01*
X210814054Y-64760432D01*
X211267960Y-64850720D01*
X211730760Y-64850720D01*
X212184666Y-64760432D01*
X212225001Y-64743725D01*
X212225001Y-70256275D01*
X212184666Y-70239568D01*
X211730760Y-70149280D01*
X211267960Y-70149280D01*
X210814054Y-70239568D01*
X210386483Y-70416673D01*
X210249680Y-70508082D01*
X210112877Y-70416673D01*
X209685306Y-70239568D01*
X209231400Y-70149280D01*
X208768600Y-70149280D01*
X208314694Y-70239568D01*
X207887123Y-70416673D01*
X207502319Y-70673791D01*
X207175071Y-71001039D01*
X206917953Y-71385843D01*
X206741523Y-71811784D01*
X206733035Y-71769111D01*
X206538130Y-71298570D01*
X206733035Y-70828029D01*
X206842210Y-70279167D01*
X206842210Y-69719553D01*
X206733035Y-69170691D01*
X206518879Y-68653675D01*
X206239573Y-68235664D01*
X206260432Y-68185306D01*
X206350720Y-67731400D01*
X206350720Y-67268600D01*
X206260432Y-66814694D01*
X206239573Y-66764336D01*
X206518879Y-66346325D01*
X206733035Y-65829309D01*
X206842210Y-65280447D01*
X206842210Y-64720833D01*
X206733035Y-64171971D01*
X206538130Y-63701430D01*
X206733035Y-63230889D01*
X206741523Y-63188216D01*
X206917953Y-63614157D01*
X206917953Y-63614157D01*
G37*
X206917953Y-63614157D02*
X207175071Y-63998961D01*
X207502319Y-64326209D01*
X207887123Y-64583327D01*
X208314694Y-64760432D01*
X208768600Y-64850720D01*
X209231400Y-64850720D01*
X209685306Y-64760432D01*
X210112877Y-64583327D01*
X210249680Y-64491918D01*
X210386483Y-64583327D01*
X210814054Y-64760432D01*
X211267960Y-64850720D01*
X211730760Y-64850720D01*
X212184666Y-64760432D01*
X212225001Y-64743725D01*
X212225001Y-70256275D01*
X212184666Y-70239568D01*
X211730760Y-70149280D01*
X211267960Y-70149280D01*
X210814054Y-70239568D01*
X210386483Y-70416673D01*
X210249680Y-70508082D01*
X210112877Y-70416673D01*
X209685306Y-70239568D01*
X209231400Y-70149280D01*
X208768600Y-70149280D01*
X208314694Y-70239568D01*
X207887123Y-70416673D01*
X207502319Y-70673791D01*
X207175071Y-71001039D01*
X206917953Y-71385843D01*
X206741523Y-71811784D01*
X206733035Y-71769111D01*
X206538130Y-71298570D01*
X206733035Y-70828029D01*
X206842210Y-70279167D01*
X206842210Y-69719553D01*
X206733035Y-69170691D01*
X206518879Y-68653675D01*
X206239573Y-68235664D01*
X206260432Y-68185306D01*
X206350720Y-67731400D01*
X206350720Y-67268600D01*
X206260432Y-66814694D01*
X206239573Y-66764336D01*
X206518879Y-66346325D01*
X206733035Y-65829309D01*
X206842210Y-65280447D01*
X206842210Y-64720833D01*
X206733035Y-64171971D01*
X206538130Y-63701430D01*
X206733035Y-63230889D01*
X206741523Y-63188216D01*
X206917953Y-63614157D01*
G36*
X134406897Y-62999887D02*
G01*
X134552708Y-63480564D01*
X134789494Y-63923559D01*
X135108153Y-64311847D01*
X135496441Y-64630506D01*
X135939436Y-64867292D01*
X136420113Y-65013103D01*
X136794731Y-65050000D01*
X137045269Y-65050000D01*
X137419887Y-65013103D01*
X137900564Y-64867292D01*
X138190000Y-64712585D01*
X138479436Y-64867292D01*
X138960113Y-65013103D01*
X139334731Y-65050000D01*
X139585269Y-65050000D01*
X139959887Y-65013103D01*
X140427334Y-64871305D01*
X140527064Y-64924612D01*
X140856940Y-65024679D01*
X141200000Y-65058467D01*
X142200974Y-65058467D01*
X139305787Y-67953655D01*
X124347312Y-67953655D01*
X124160510Y-67828838D01*
X123714639Y-67644152D01*
X123605903Y-67622523D01*
X124904966Y-66323460D01*
X125085203Y-66268786D01*
X125476081Y-66059858D01*
X125818688Y-65778688D01*
X126099858Y-65436081D01*
X126308786Y-65045204D01*
X126316829Y-65018689D01*
X126634731Y-65050000D01*
X126885269Y-65050000D01*
X127259887Y-65013103D01*
X127740564Y-64867292D01*
X128030000Y-64712585D01*
X128319436Y-64867292D01*
X128800113Y-65013103D01*
X129174731Y-65050000D01*
X129425269Y-65050000D01*
X129799887Y-65013103D01*
X130280564Y-64867292D01*
X130570000Y-64712585D01*
X130859436Y-64867292D01*
X131340113Y-65013103D01*
X131714731Y-65050000D01*
X131965269Y-65050000D01*
X132339887Y-65013103D01*
X132820564Y-64867292D01*
X133263559Y-64630506D01*
X133651847Y-64311847D01*
X133970506Y-63923559D01*
X134207292Y-63480564D01*
X134353103Y-62999887D01*
X134380000Y-62726800D01*
X134406897Y-62999887D01*
X134406897Y-62999887D01*
G37*
X134406897Y-62999887D02*
X134552708Y-63480564D01*
X134789494Y-63923559D01*
X135108153Y-64311847D01*
X135496441Y-64630506D01*
X135939436Y-64867292D01*
X136420113Y-65013103D01*
X136794731Y-65050000D01*
X137045269Y-65050000D01*
X137419887Y-65013103D01*
X137900564Y-64867292D01*
X138190000Y-64712585D01*
X138479436Y-64867292D01*
X138960113Y-65013103D01*
X139334731Y-65050000D01*
X139585269Y-65050000D01*
X139959887Y-65013103D01*
X140427334Y-64871305D01*
X140527064Y-64924612D01*
X140856940Y-65024679D01*
X141200000Y-65058467D01*
X142200974Y-65058467D01*
X139305787Y-67953655D01*
X124347312Y-67953655D01*
X124160510Y-67828838D01*
X123714639Y-67644152D01*
X123605903Y-67622523D01*
X124904966Y-66323460D01*
X125085203Y-66268786D01*
X125476081Y-66059858D01*
X125818688Y-65778688D01*
X126099858Y-65436081D01*
X126308786Y-65045204D01*
X126316829Y-65018689D01*
X126634731Y-65050000D01*
X126885269Y-65050000D01*
X127259887Y-65013103D01*
X127740564Y-64867292D01*
X128030000Y-64712585D01*
X128319436Y-64867292D01*
X128800113Y-65013103D01*
X129174731Y-65050000D01*
X129425269Y-65050000D01*
X129799887Y-65013103D01*
X130280564Y-64867292D01*
X130570000Y-64712585D01*
X130859436Y-64867292D01*
X131340113Y-65013103D01*
X131714731Y-65050000D01*
X131965269Y-65050000D01*
X132339887Y-65013103D01*
X132820564Y-64867292D01*
X133263559Y-64630506D01*
X133651847Y-64311847D01*
X133970506Y-63923559D01*
X134207292Y-63480564D01*
X134353103Y-62999887D01*
X134380000Y-62726800D01*
X134406897Y-62999887D01*
G36*
X204533282Y-38090181D02*
G01*
X204054086Y-39022596D01*
X203765123Y-40030330D01*
X203677400Y-41074999D01*
X203794258Y-42116811D01*
X204111246Y-43116083D01*
X204616290Y-44034755D01*
X205290153Y-44837834D01*
X206107168Y-45494731D01*
X207036215Y-45980426D01*
X208041908Y-46276417D01*
X209085938Y-46371431D01*
X210128541Y-46261849D01*
X211130002Y-45951845D01*
X212052177Y-45453227D01*
X212225001Y-45310255D01*
X212225001Y-47802170D01*
X212198780Y-47770220D01*
X211903300Y-47527727D01*
X211566190Y-47347537D01*
X211200404Y-47236578D01*
X210820000Y-47199111D01*
X210439597Y-47236578D01*
X210073811Y-47347537D01*
X209747656Y-47521871D01*
X209724192Y-47509695D01*
X209691310Y-47496542D01*
X209572739Y-47440396D01*
X209514239Y-47425714D01*
X209100215Y-47260104D01*
X209026190Y-47220537D01*
X208923171Y-47189287D01*
X208912174Y-47184888D01*
X208832046Y-47161645D01*
X208660404Y-47109578D01*
X208648520Y-47108407D01*
X208637059Y-47105083D01*
X208458469Y-47089689D01*
X208375327Y-47081500D01*
X208363468Y-47081500D01*
X208256227Y-47072256D01*
X208172813Y-47081500D01*
X207866302Y-47081500D01*
X207769959Y-47072113D01*
X207581405Y-47090883D01*
X207391596Y-47109578D01*
X207298954Y-47137680D01*
X206862541Y-47224963D01*
X206779940Y-47232083D01*
X206675585Y-47262354D01*
X206662961Y-47264879D01*
X206584064Y-47288902D01*
X206504825Y-47311888D01*
X206492867Y-47316671D01*
X206388927Y-47348320D01*
X206315854Y-47387476D01*
X206237900Y-47418658D01*
X206061300Y-47273727D01*
X205724190Y-47093537D01*
X205358404Y-46982578D01*
X204978000Y-46945111D01*
X204597597Y-46982578D01*
X204231811Y-47093537D01*
X203894701Y-47273727D01*
X203599220Y-47516220D01*
X203565587Y-47557202D01*
X203466791Y-47603984D01*
X203159874Y-47831829D01*
X202903302Y-48115171D01*
X202706940Y-48443124D01*
X202578330Y-48803083D01*
X202522417Y-49181216D01*
X202541347Y-49562991D01*
X202634396Y-49933738D01*
X202797984Y-50279209D01*
X203025829Y-50586126D01*
X203309171Y-50842698D01*
X203429510Y-50914751D01*
X203424423Y-50937122D01*
X203421095Y-51059328D01*
X203418500Y-51085674D01*
X203418500Y-51154612D01*
X203414017Y-51319225D01*
X203418500Y-51345479D01*
X203418500Y-51397521D01*
X203414017Y-51423775D01*
X203418500Y-51588388D01*
X203418500Y-51657327D01*
X203421095Y-51683674D01*
X203424423Y-51805878D01*
X203439786Y-51873443D01*
X203446578Y-51942404D01*
X203482071Y-52059409D01*
X203487936Y-52085204D01*
X203509716Y-52150545D01*
X203548195Y-52277394D01*
X203356727Y-52510700D01*
X203176537Y-52847810D01*
X203065578Y-53213596D01*
X203028111Y-53594000D01*
X203065578Y-53974404D01*
X203176537Y-54340190D01*
X203202956Y-54389617D01*
X203303537Y-54721190D01*
X203483727Y-55058300D01*
X203726220Y-55353780D01*
X204021700Y-55596273D01*
X204358810Y-55776463D01*
X204724596Y-55887422D01*
X205009673Y-55915500D01*
X205136673Y-55915500D01*
X205232000Y-55924889D01*
X205612404Y-55887422D01*
X205978190Y-55776463D01*
X206190901Y-55662766D01*
X206229123Y-55675507D01*
X206367983Y-55728643D01*
X206410115Y-55735837D01*
X206630658Y-55809352D01*
X206700879Y-55834441D01*
X206721067Y-55839488D01*
X206740795Y-55846064D01*
X206813472Y-55862589D01*
X207254716Y-55972900D01*
X207391596Y-56014422D01*
X207534841Y-56028531D01*
X207677215Y-56049583D01*
X207820063Y-56042500D01*
X207988521Y-56042500D01*
X208014775Y-56046983D01*
X208179388Y-56042500D01*
X208248327Y-56042500D01*
X208274674Y-56039905D01*
X208396878Y-56036577D01*
X208464443Y-56021214D01*
X208533404Y-56014422D01*
X208650409Y-55978929D01*
X208676204Y-55973064D01*
X208741545Y-55951284D01*
X208899190Y-55903463D01*
X208922690Y-55890902D01*
X209122578Y-55824273D01*
X209280190Y-55776462D01*
X209388016Y-55718828D01*
X209445830Y-55693014D01*
X209482701Y-55723273D01*
X209819811Y-55903463D01*
X210185597Y-56014422D01*
X210566000Y-56051889D01*
X210946404Y-56014422D01*
X211312190Y-55903463D01*
X211649300Y-55723273D01*
X211944780Y-55480780D01*
X212187273Y-55185300D01*
X212225001Y-55114717D01*
X212225001Y-60258835D01*
X212184666Y-60242128D01*
X211730760Y-60151840D01*
X211267960Y-60151840D01*
X210814054Y-60242128D01*
X210386483Y-60419233D01*
X210249680Y-60510642D01*
X210112877Y-60419233D01*
X209685306Y-60242128D01*
X209231400Y-60151840D01*
X208768600Y-60151840D01*
X208314694Y-60242128D01*
X207887123Y-60419233D01*
X207502319Y-60676351D01*
X207175071Y-61003599D01*
X206917953Y-61388403D01*
X206768147Y-61750069D01*
X206733035Y-61573551D01*
X206518879Y-61056535D01*
X206207974Y-60591233D01*
X205812267Y-60195526D01*
X205346965Y-59884621D01*
X204829949Y-59670465D01*
X204281087Y-59561290D01*
X203721473Y-59561290D01*
X203172611Y-59670465D01*
X202655595Y-59884621D01*
X202239054Y-60162945D01*
X202017395Y-60184776D01*
X201593268Y-60313434D01*
X201202391Y-60522362D01*
X200859784Y-60803532D01*
X200789323Y-60889389D01*
X199889389Y-61789323D01*
X199803532Y-61859784D01*
X199522362Y-62202391D01*
X199313434Y-62593269D01*
X199279503Y-62705123D01*
X198957878Y-62490220D01*
X198493807Y-62297995D01*
X198001153Y-62200000D01*
X197498847Y-62200000D01*
X197006193Y-62297995D01*
X196542122Y-62490220D01*
X196527485Y-62500000D01*
X195181980Y-62500000D01*
X194705440Y-62023460D01*
X194702005Y-62006193D01*
X194509780Y-61542122D01*
X194230714Y-61124470D01*
X193875530Y-60769286D01*
X193457878Y-60490220D01*
X192993807Y-60297995D01*
X192501153Y-60200000D01*
X191998847Y-60200000D01*
X191506193Y-60297995D01*
X191042122Y-60490220D01*
X190624470Y-60769286D01*
X190269286Y-61124470D01*
X190250000Y-61153334D01*
X190250000Y-59470178D01*
X190355848Y-59214639D01*
X190418433Y-58900000D01*
X194770749Y-58900000D01*
X194876361Y-58910402D01*
X194981973Y-58900000D01*
X195297835Y-58868890D01*
X195703111Y-58745951D01*
X196076616Y-58546309D01*
X196403996Y-58277635D01*
X196471327Y-58195592D01*
X198345607Y-56321313D01*
X198427645Y-56253986D01*
X198696319Y-55926606D01*
X198895961Y-55553101D01*
X199018900Y-55147825D01*
X199030032Y-55034797D01*
X199060412Y-54726351D01*
X199050010Y-54620739D01*
X199050010Y-51563417D01*
X199117453Y-51341087D01*
X199160896Y-50900010D01*
X199117453Y-50458933D01*
X198988796Y-50034807D01*
X198779868Y-49643928D01*
X198569155Y-49387174D01*
X195209991Y-46028011D01*
X195144319Y-45697855D01*
X194937018Y-45197387D01*
X194750000Y-44917494D01*
X194750000Y-41582506D01*
X194937018Y-41302613D01*
X195144319Y-40802145D01*
X195250000Y-40270851D01*
X195250000Y-39729149D01*
X195144319Y-39197855D01*
X194937018Y-38697387D01*
X194636064Y-38246977D01*
X194253023Y-37863936D01*
X193820599Y-37575000D01*
X204941610Y-37575000D01*
X204533282Y-38090181D01*
X204533282Y-38090181D01*
G37*
X204533282Y-38090181D02*
X204054086Y-39022596D01*
X203765123Y-40030330D01*
X203677400Y-41074999D01*
X203794258Y-42116811D01*
X204111246Y-43116083D01*
X204616290Y-44034755D01*
X205290153Y-44837834D01*
X206107168Y-45494731D01*
X207036215Y-45980426D01*
X208041908Y-46276417D01*
X209085938Y-46371431D01*
X210128541Y-46261849D01*
X211130002Y-45951845D01*
X212052177Y-45453227D01*
X212225001Y-45310255D01*
X212225001Y-47802170D01*
X212198780Y-47770220D01*
X211903300Y-47527727D01*
X211566190Y-47347537D01*
X211200404Y-47236578D01*
X210820000Y-47199111D01*
X210439597Y-47236578D01*
X210073811Y-47347537D01*
X209747656Y-47521871D01*
X209724192Y-47509695D01*
X209691310Y-47496542D01*
X209572739Y-47440396D01*
X209514239Y-47425714D01*
X209100215Y-47260104D01*
X209026190Y-47220537D01*
X208923171Y-47189287D01*
X208912174Y-47184888D01*
X208832046Y-47161645D01*
X208660404Y-47109578D01*
X208648520Y-47108407D01*
X208637059Y-47105083D01*
X208458469Y-47089689D01*
X208375327Y-47081500D01*
X208363468Y-47081500D01*
X208256227Y-47072256D01*
X208172813Y-47081500D01*
X207866302Y-47081500D01*
X207769959Y-47072113D01*
X207581405Y-47090883D01*
X207391596Y-47109578D01*
X207298954Y-47137680D01*
X206862541Y-47224963D01*
X206779940Y-47232083D01*
X206675585Y-47262354D01*
X206662961Y-47264879D01*
X206584064Y-47288902D01*
X206504825Y-47311888D01*
X206492867Y-47316671D01*
X206388927Y-47348320D01*
X206315854Y-47387476D01*
X206237900Y-47418658D01*
X206061300Y-47273727D01*
X205724190Y-47093537D01*
X205358404Y-46982578D01*
X204978000Y-46945111D01*
X204597597Y-46982578D01*
X204231811Y-47093537D01*
X203894701Y-47273727D01*
X203599220Y-47516220D01*
X203565587Y-47557202D01*
X203466791Y-47603984D01*
X203159874Y-47831829D01*
X202903302Y-48115171D01*
X202706940Y-48443124D01*
X202578330Y-48803083D01*
X202522417Y-49181216D01*
X202541347Y-49562991D01*
X202634396Y-49933738D01*
X202797984Y-50279209D01*
X203025829Y-50586126D01*
X203309171Y-50842698D01*
X203429510Y-50914751D01*
X203424423Y-50937122D01*
X203421095Y-51059328D01*
X203418500Y-51085674D01*
X203418500Y-51154612D01*
X203414017Y-51319225D01*
X203418500Y-51345479D01*
X203418500Y-51397521D01*
X203414017Y-51423775D01*
X203418500Y-51588388D01*
X203418500Y-51657327D01*
X203421095Y-51683674D01*
X203424423Y-51805878D01*
X203439786Y-51873443D01*
X203446578Y-51942404D01*
X203482071Y-52059409D01*
X203487936Y-52085204D01*
X203509716Y-52150545D01*
X203548195Y-52277394D01*
X203356727Y-52510700D01*
X203176537Y-52847810D01*
X203065578Y-53213596D01*
X203028111Y-53594000D01*
X203065578Y-53974404D01*
X203176537Y-54340190D01*
X203202956Y-54389617D01*
X203303537Y-54721190D01*
X203483727Y-55058300D01*
X203726220Y-55353780D01*
X204021700Y-55596273D01*
X204358810Y-55776463D01*
X204724596Y-55887422D01*
X205009673Y-55915500D01*
X205136673Y-55915500D01*
X205232000Y-55924889D01*
X205612404Y-55887422D01*
X205978190Y-55776463D01*
X206190901Y-55662766D01*
X206229123Y-55675507D01*
X206367983Y-55728643D01*
X206410115Y-55735837D01*
X206630658Y-55809352D01*
X206700879Y-55834441D01*
X206721067Y-55839488D01*
X206740795Y-55846064D01*
X206813472Y-55862589D01*
X207254716Y-55972900D01*
X207391596Y-56014422D01*
X207534841Y-56028531D01*
X207677215Y-56049583D01*
X207820063Y-56042500D01*
X207988521Y-56042500D01*
X208014775Y-56046983D01*
X208179388Y-56042500D01*
X208248327Y-56042500D01*
X208274674Y-56039905D01*
X208396878Y-56036577D01*
X208464443Y-56021214D01*
X208533404Y-56014422D01*
X208650409Y-55978929D01*
X208676204Y-55973064D01*
X208741545Y-55951284D01*
X208899190Y-55903463D01*
X208922690Y-55890902D01*
X209122578Y-55824273D01*
X209280190Y-55776462D01*
X209388016Y-55718828D01*
X209445830Y-55693014D01*
X209482701Y-55723273D01*
X209819811Y-55903463D01*
X210185597Y-56014422D01*
X210566000Y-56051889D01*
X210946404Y-56014422D01*
X211312190Y-55903463D01*
X211649300Y-55723273D01*
X211944780Y-55480780D01*
X212187273Y-55185300D01*
X212225001Y-55114717D01*
X212225001Y-60258835D01*
X212184666Y-60242128D01*
X211730760Y-60151840D01*
X211267960Y-60151840D01*
X210814054Y-60242128D01*
X210386483Y-60419233D01*
X210249680Y-60510642D01*
X210112877Y-60419233D01*
X209685306Y-60242128D01*
X209231400Y-60151840D01*
X208768600Y-60151840D01*
X208314694Y-60242128D01*
X207887123Y-60419233D01*
X207502319Y-60676351D01*
X207175071Y-61003599D01*
X206917953Y-61388403D01*
X206768147Y-61750069D01*
X206733035Y-61573551D01*
X206518879Y-61056535D01*
X206207974Y-60591233D01*
X205812267Y-60195526D01*
X205346965Y-59884621D01*
X204829949Y-59670465D01*
X204281087Y-59561290D01*
X203721473Y-59561290D01*
X203172611Y-59670465D01*
X202655595Y-59884621D01*
X202239054Y-60162945D01*
X202017395Y-60184776D01*
X201593268Y-60313434D01*
X201202391Y-60522362D01*
X200859784Y-60803532D01*
X200789323Y-60889389D01*
X199889389Y-61789323D01*
X199803532Y-61859784D01*
X199522362Y-62202391D01*
X199313434Y-62593269D01*
X199279503Y-62705123D01*
X198957878Y-62490220D01*
X198493807Y-62297995D01*
X198001153Y-62200000D01*
X197498847Y-62200000D01*
X197006193Y-62297995D01*
X196542122Y-62490220D01*
X196527485Y-62500000D01*
X195181980Y-62500000D01*
X194705440Y-62023460D01*
X194702005Y-62006193D01*
X194509780Y-61542122D01*
X194230714Y-61124470D01*
X193875530Y-60769286D01*
X193457878Y-60490220D01*
X192993807Y-60297995D01*
X192501153Y-60200000D01*
X191998847Y-60200000D01*
X191506193Y-60297995D01*
X191042122Y-60490220D01*
X190624470Y-60769286D01*
X190269286Y-61124470D01*
X190250000Y-61153334D01*
X190250000Y-59470178D01*
X190355848Y-59214639D01*
X190418433Y-58900000D01*
X194770749Y-58900000D01*
X194876361Y-58910402D01*
X194981973Y-58900000D01*
X195297835Y-58868890D01*
X195703111Y-58745951D01*
X196076616Y-58546309D01*
X196403996Y-58277635D01*
X196471327Y-58195592D01*
X198345607Y-56321313D01*
X198427645Y-56253986D01*
X198696319Y-55926606D01*
X198895961Y-55553101D01*
X199018900Y-55147825D01*
X199030032Y-55034797D01*
X199060412Y-54726351D01*
X199050010Y-54620739D01*
X199050010Y-51563417D01*
X199117453Y-51341087D01*
X199160896Y-50900010D01*
X199117453Y-50458933D01*
X198988796Y-50034807D01*
X198779868Y-49643928D01*
X198569155Y-49387174D01*
X195209991Y-46028011D01*
X195144319Y-45697855D01*
X194937018Y-45197387D01*
X194750000Y-44917494D01*
X194750000Y-41582506D01*
X194937018Y-41302613D01*
X195144319Y-40802145D01*
X195250000Y-40270851D01*
X195250000Y-39729149D01*
X195144319Y-39197855D01*
X194937018Y-38697387D01*
X194636064Y-38246977D01*
X194253023Y-37863936D01*
X193820599Y-37575000D01*
X204941610Y-37575000D01*
X204533282Y-38090181D01*
G36*
X134688557Y-60913554D02*
G01*
X134646089Y-61344733D01*
X134552708Y-61519436D01*
X134406897Y-62000113D01*
X134380000Y-62273200D01*
X134353103Y-62000113D01*
X134207292Y-61519436D01*
X134123937Y-61363489D01*
X134738494Y-60748932D01*
X134688557Y-60913554D01*
X134688557Y-60913554D01*
G37*
X134688557Y-60913554D02*
X134646089Y-61344733D01*
X134552708Y-61519436D01*
X134406897Y-62000113D01*
X134380000Y-62273200D01*
X134353103Y-62000113D01*
X134207292Y-61519436D01*
X134123937Y-61363489D01*
X134738494Y-60748932D01*
X134688557Y-60913554D01*
G36*
X161459434Y-58000008D02*
G01*
X159672329Y-58000008D01*
X159932976Y-57948162D01*
X160415246Y-57748399D01*
X160849276Y-57458389D01*
X161218389Y-57089276D01*
X161508399Y-56655246D01*
X161708162Y-56172976D01*
X161810000Y-55661002D01*
X161810000Y-55138998D01*
X161708162Y-54627024D01*
X161508399Y-54144754D01*
X161311450Y-53850000D01*
X165609441Y-53850000D01*
X161459434Y-58000008D01*
X161459434Y-58000008D01*
G37*
X161459434Y-58000008D02*
X159672329Y-58000008D01*
X159932976Y-57948162D01*
X160415246Y-57748399D01*
X160849276Y-57458389D01*
X161218389Y-57089276D01*
X161508399Y-56655246D01*
X161708162Y-56172976D01*
X161810000Y-55661002D01*
X161810000Y-55138998D01*
X161708162Y-54627024D01*
X161508399Y-54144754D01*
X161311450Y-53850000D01*
X165609441Y-53850000D01*
X161459434Y-58000008D01*
G36*
X127746977Y-37863936D02*
G01*
X127363936Y-38246977D01*
X127062982Y-38697387D01*
X126855681Y-39197855D01*
X126750000Y-39729149D01*
X126750000Y-40270851D01*
X126829794Y-40672000D01*
X124012013Y-40672000D01*
X123913770Y-40662324D01*
X123815527Y-40672000D01*
X123815518Y-40672000D01*
X123521702Y-40700938D01*
X123144701Y-40815301D01*
X122797254Y-41001015D01*
X122676641Y-41100000D01*
X122492715Y-41250944D01*
X122430084Y-41327260D01*
X120161521Y-43595823D01*
X120088162Y-43227024D01*
X119888399Y-42744754D01*
X119598389Y-42310724D01*
X119229276Y-41941611D01*
X118795246Y-41651601D01*
X118312976Y-41451838D01*
X117801002Y-41350000D01*
X117278998Y-41350000D01*
X116767024Y-41451838D01*
X116284754Y-41651601D01*
X115850724Y-41941611D01*
X115481611Y-42310724D01*
X115191601Y-42744754D01*
X114991838Y-43227024D01*
X114890000Y-43738998D01*
X114890000Y-44261002D01*
X114991838Y-44772976D01*
X115191601Y-45255246D01*
X115287652Y-45398997D01*
X110987164Y-49699486D01*
X110901313Y-49769942D01*
X110830857Y-49855793D01*
X110830855Y-49855795D01*
X110620142Y-50112549D01*
X110411214Y-50503427D01*
X110374084Y-50625829D01*
X110282556Y-50927553D01*
X110251714Y-51240700D01*
X110239114Y-51368630D01*
X110250000Y-51479155D01*
X110250000Y-52777485D01*
X110240220Y-52792122D01*
X110047995Y-53256193D01*
X109950000Y-53748847D01*
X109950000Y-54251153D01*
X110047995Y-54743807D01*
X110240220Y-55207878D01*
X110304326Y-55303820D01*
X109879436Y-55432708D01*
X109659998Y-55550000D01*
X107410526Y-55550000D01*
X107300000Y-55539114D01*
X107189474Y-55550000D01*
X107189472Y-55550000D01*
X106858923Y-55582556D01*
X106434796Y-55711214D01*
X106043919Y-55920142D01*
X105701312Y-56201312D01*
X105630847Y-56287173D01*
X105250000Y-56668020D01*
X105250000Y-52605532D01*
X105305204Y-52588786D01*
X105696081Y-52379858D01*
X106038688Y-52098688D01*
X106109149Y-52012831D01*
X108512831Y-49609149D01*
X108598688Y-49538688D01*
X108879858Y-49196081D01*
X109088786Y-48805204D01*
X109217444Y-48381076D01*
X109246306Y-48088034D01*
X109437018Y-47802613D01*
X109644319Y-47302145D01*
X109750000Y-46770851D01*
X109750000Y-46229149D01*
X109644319Y-45697855D01*
X109437018Y-45197387D01*
X109250000Y-44917494D01*
X109250000Y-41582506D01*
X109437018Y-41302613D01*
X109644319Y-40802145D01*
X109750000Y-40270851D01*
X109750000Y-39729149D01*
X109644319Y-39197855D01*
X109437018Y-38697387D01*
X109136064Y-38246977D01*
X108753023Y-37863936D01*
X108320599Y-37575000D01*
X128179401Y-37575000D01*
X127746977Y-37863936D01*
X127746977Y-37863936D01*
G37*
X127746977Y-37863936D02*
X127363936Y-38246977D01*
X127062982Y-38697387D01*
X126855681Y-39197855D01*
X126750000Y-39729149D01*
X126750000Y-40270851D01*
X126829794Y-40672000D01*
X124012013Y-40672000D01*
X123913770Y-40662324D01*
X123815527Y-40672000D01*
X123815518Y-40672000D01*
X123521702Y-40700938D01*
X123144701Y-40815301D01*
X122797254Y-41001015D01*
X122676641Y-41100000D01*
X122492715Y-41250944D01*
X122430084Y-41327260D01*
X120161521Y-43595823D01*
X120088162Y-43227024D01*
X119888399Y-42744754D01*
X119598389Y-42310724D01*
X119229276Y-41941611D01*
X118795246Y-41651601D01*
X118312976Y-41451838D01*
X117801002Y-41350000D01*
X117278998Y-41350000D01*
X116767024Y-41451838D01*
X116284754Y-41651601D01*
X115850724Y-41941611D01*
X115481611Y-42310724D01*
X115191601Y-42744754D01*
X114991838Y-43227024D01*
X114890000Y-43738998D01*
X114890000Y-44261002D01*
X114991838Y-44772976D01*
X115191601Y-45255246D01*
X115287652Y-45398997D01*
X110987164Y-49699486D01*
X110901313Y-49769942D01*
X110830857Y-49855793D01*
X110830855Y-49855795D01*
X110620142Y-50112549D01*
X110411214Y-50503427D01*
X110374084Y-50625829D01*
X110282556Y-50927553D01*
X110251714Y-51240700D01*
X110239114Y-51368630D01*
X110250000Y-51479155D01*
X110250000Y-52777485D01*
X110240220Y-52792122D01*
X110047995Y-53256193D01*
X109950000Y-53748847D01*
X109950000Y-54251153D01*
X110047995Y-54743807D01*
X110240220Y-55207878D01*
X110304326Y-55303820D01*
X109879436Y-55432708D01*
X109659998Y-55550000D01*
X107410526Y-55550000D01*
X107300000Y-55539114D01*
X107189474Y-55550000D01*
X107189472Y-55550000D01*
X106858923Y-55582556D01*
X106434796Y-55711214D01*
X106043919Y-55920142D01*
X105701312Y-56201312D01*
X105630847Y-56287173D01*
X105250000Y-56668020D01*
X105250000Y-52605532D01*
X105305204Y-52588786D01*
X105696081Y-52379858D01*
X106038688Y-52098688D01*
X106109149Y-52012831D01*
X108512831Y-49609149D01*
X108598688Y-49538688D01*
X108879858Y-49196081D01*
X109088786Y-48805204D01*
X109217444Y-48381076D01*
X109246306Y-48088034D01*
X109437018Y-47802613D01*
X109644319Y-47302145D01*
X109750000Y-46770851D01*
X109750000Y-46229149D01*
X109644319Y-45697855D01*
X109437018Y-45197387D01*
X109250000Y-44917494D01*
X109250000Y-41582506D01*
X109437018Y-41302613D01*
X109644319Y-40802145D01*
X109750000Y-40270851D01*
X109750000Y-39729149D01*
X109644319Y-39197855D01*
X109437018Y-38697387D01*
X109136064Y-38246977D01*
X108753023Y-37863936D01*
X108320599Y-37575000D01*
X128179401Y-37575000D01*
X127746977Y-37863936D01*
G36*
X194750011Y-53835792D02*
G01*
X193985803Y-54600000D01*
X193820396Y-54600000D01*
X194061847Y-54401847D01*
X194380506Y-54013559D01*
X194617292Y-53570564D01*
X194750011Y-53133047D01*
X194750011Y-53835792D01*
X194750011Y-53835792D01*
G37*
X194750011Y-53835792D02*
X193985803Y-54600000D01*
X193820396Y-54600000D01*
X194061847Y-54401847D01*
X194380506Y-54013559D01*
X194617292Y-53570564D01*
X194750011Y-53133047D01*
X194750011Y-53835792D01*
G36*
X194750010Y-51931991D02*
G01*
X194750010Y-52046952D01*
X194699953Y-51881934D01*
X194750010Y-51931991D01*
X194750010Y-51931991D01*
G37*
X194750010Y-51931991D02*
X194750010Y-52046952D01*
X194699953Y-51881934D01*
X194750010Y-51931991D01*
G36*
X190746977Y-37863936D02*
G01*
X190363936Y-38246977D01*
X190062982Y-38697387D01*
X189855681Y-39197855D01*
X189750000Y-39729149D01*
X189750000Y-40270851D01*
X189855681Y-40802145D01*
X190062982Y-41302613D01*
X190250001Y-41582507D01*
X190250000Y-44917494D01*
X190062982Y-45197387D01*
X189855681Y-45697855D01*
X189750000Y-46229149D01*
X189750000Y-46770851D01*
X189855681Y-47302145D01*
X190062982Y-47802613D01*
X190363936Y-48253023D01*
X190746977Y-48636064D01*
X191197387Y-48937018D01*
X191697855Y-49144319D01*
X192028011Y-49209991D01*
X192958067Y-50140047D01*
X192749887Y-50076897D01*
X192375269Y-50040000D01*
X192124731Y-50040000D01*
X191750113Y-50076897D01*
X191669671Y-50101299D01*
X191428885Y-49903691D01*
X191055380Y-49704049D01*
X190650104Y-49581110D01*
X190334242Y-49550000D01*
X190228630Y-49539598D01*
X190123018Y-49550000D01*
X179731980Y-49550000D01*
X182984415Y-46297566D01*
X183465246Y-46098399D01*
X183899276Y-45808389D01*
X184268389Y-45439276D01*
X184558399Y-45005246D01*
X184758162Y-44522976D01*
X184860000Y-44011002D01*
X184860000Y-43488998D01*
X184758162Y-42977024D01*
X184558399Y-42494754D01*
X184268389Y-42060724D01*
X183899276Y-41691611D01*
X183465246Y-41401601D01*
X182982976Y-41201838D01*
X182471002Y-41100000D01*
X181948998Y-41100000D01*
X181437024Y-41201838D01*
X180954754Y-41401601D01*
X180520724Y-41691611D01*
X180151611Y-42060724D01*
X179861601Y-42494754D01*
X179661838Y-42977024D01*
X179592522Y-43325497D01*
X174830855Y-48087165D01*
X174697229Y-48249989D01*
X172138091Y-48249989D01*
X172437018Y-47802613D01*
X172644319Y-47302145D01*
X172750000Y-46770851D01*
X172750000Y-46229149D01*
X172644319Y-45697855D01*
X172437018Y-45197387D01*
X172250000Y-44917494D01*
X172250000Y-41582506D01*
X172437018Y-41302613D01*
X172644319Y-40802145D01*
X172750000Y-40270851D01*
X172750000Y-39729149D01*
X172644319Y-39197855D01*
X172437018Y-38697387D01*
X172136064Y-38246977D01*
X171753023Y-37863936D01*
X171320599Y-37575000D01*
X191179401Y-37575000D01*
X190746977Y-37863936D01*
X190746977Y-37863936D01*
G37*
X190746977Y-37863936D02*
X190363936Y-38246977D01*
X190062982Y-38697387D01*
X189855681Y-39197855D01*
X189750000Y-39729149D01*
X189750000Y-40270851D01*
X189855681Y-40802145D01*
X190062982Y-41302613D01*
X190250001Y-41582507D01*
X190250000Y-44917494D01*
X190062982Y-45197387D01*
X189855681Y-45697855D01*
X189750000Y-46229149D01*
X189750000Y-46770851D01*
X189855681Y-47302145D01*
X190062982Y-47802613D01*
X190363936Y-48253023D01*
X190746977Y-48636064D01*
X191197387Y-48937018D01*
X191697855Y-49144319D01*
X192028011Y-49209991D01*
X192958067Y-50140047D01*
X192749887Y-50076897D01*
X192375269Y-50040000D01*
X192124731Y-50040000D01*
X191750113Y-50076897D01*
X191669671Y-50101299D01*
X191428885Y-49903691D01*
X191055380Y-49704049D01*
X190650104Y-49581110D01*
X190334242Y-49550000D01*
X190228630Y-49539598D01*
X190123018Y-49550000D01*
X179731980Y-49550000D01*
X182984415Y-46297566D01*
X183465246Y-46098399D01*
X183899276Y-45808389D01*
X184268389Y-45439276D01*
X184558399Y-45005246D01*
X184758162Y-44522976D01*
X184860000Y-44011002D01*
X184860000Y-43488998D01*
X184758162Y-42977024D01*
X184558399Y-42494754D01*
X184268389Y-42060724D01*
X183899276Y-41691611D01*
X183465246Y-41401601D01*
X182982976Y-41201838D01*
X182471002Y-41100000D01*
X181948998Y-41100000D01*
X181437024Y-41201838D01*
X180954754Y-41401601D01*
X180520724Y-41691611D01*
X180151611Y-42060724D01*
X179861601Y-42494754D01*
X179661838Y-42977024D01*
X179592522Y-43325497D01*
X174830855Y-48087165D01*
X174697229Y-48249989D01*
X172138091Y-48249989D01*
X172437018Y-47802613D01*
X172644319Y-47302145D01*
X172750000Y-46770851D01*
X172750000Y-46229149D01*
X172644319Y-45697855D01*
X172437018Y-45197387D01*
X172250000Y-44917494D01*
X172250000Y-41582506D01*
X172437018Y-41302613D01*
X172644319Y-40802145D01*
X172750000Y-40270851D01*
X172750000Y-39729149D01*
X172644319Y-39197855D01*
X172437018Y-38697387D01*
X172136064Y-38246977D01*
X171753023Y-37863936D01*
X171320599Y-37575000D01*
X191179401Y-37575000D01*
X190746977Y-37863936D01*
G36*
X144422796Y-44760786D02*
G01*
X144846923Y-44889444D01*
X145177472Y-44922000D01*
X147240020Y-44922000D01*
X149290009Y-46971989D01*
X149295581Y-47000000D01*
X140242656Y-47000000D01*
X137914655Y-44672000D01*
X144256689Y-44672000D01*
X144422796Y-44760786D01*
X144422796Y-44760786D01*
G37*
X144422796Y-44760786D02*
X144846923Y-44889444D01*
X145177472Y-44922000D01*
X147240020Y-44922000D01*
X149290009Y-46971989D01*
X149295581Y-47000000D01*
X140242656Y-47000000D01*
X137914655Y-44672000D01*
X144256689Y-44672000D01*
X144422796Y-44760786D01*
G36*
X150246977Y-37863936D02*
G01*
X149863936Y-38246977D01*
X149562982Y-38697387D01*
X149355681Y-39197855D01*
X149250000Y-39729149D01*
X149250000Y-40270851D01*
X149344841Y-40747649D01*
X149037204Y-40583214D01*
X148613077Y-40454556D01*
X148282528Y-40422000D01*
X148282525Y-40422000D01*
X148172000Y-40411114D01*
X148061475Y-40422000D01*
X145177472Y-40422000D01*
X144846923Y-40454556D01*
X144422796Y-40583214D01*
X144256689Y-40672000D01*
X132170206Y-40672000D01*
X132250000Y-40270851D01*
X132250000Y-39729149D01*
X132144319Y-39197855D01*
X131937018Y-38697387D01*
X131636064Y-38246977D01*
X131253023Y-37863936D01*
X130820599Y-37575000D01*
X150679401Y-37575000D01*
X150246977Y-37863936D01*
X150246977Y-37863936D01*
G37*
X150246977Y-37863936D02*
X149863936Y-38246977D01*
X149562982Y-38697387D01*
X149355681Y-39197855D01*
X149250000Y-39729149D01*
X149250000Y-40270851D01*
X149344841Y-40747649D01*
X149037204Y-40583214D01*
X148613077Y-40454556D01*
X148282528Y-40422000D01*
X148282525Y-40422000D01*
X148172000Y-40411114D01*
X148061475Y-40422000D01*
X145177472Y-40422000D01*
X144846923Y-40454556D01*
X144422796Y-40583214D01*
X144256689Y-40672000D01*
X132170206Y-40672000D01*
X132250000Y-40270851D01*
X132250000Y-39729149D01*
X132144319Y-39197855D01*
X131937018Y-38697387D01*
X131636064Y-38246977D01*
X131253023Y-37863936D01*
X130820599Y-37575000D01*
X150679401Y-37575000D01*
X150246977Y-37863936D01*
D28*
G36*
X167373000Y-40258737D02*
G01*
X167473954Y-40766268D01*
X167671983Y-41244351D01*
X167873001Y-41545196D01*
X167873000Y-44493513D01*
X167767881Y-44525401D01*
X167398371Y-44722907D01*
X167305652Y-44799000D01*
X167074494Y-44988707D01*
X167007888Y-45069867D01*
X164954756Y-47123000D01*
X154554544Y-47123000D01*
X154627000Y-46758737D01*
X154627000Y-46241263D01*
X154526046Y-45733732D01*
X154328017Y-45255649D01*
X154127000Y-44954806D01*
X154127000Y-41545194D01*
X154328017Y-41244351D01*
X154526046Y-40766268D01*
X154627000Y-40258737D01*
X154627000Y-39827000D01*
X167373000Y-39827000D01*
X167373000Y-40258737D01*
X167373000Y-40258737D01*
G37*
X167373000Y-40258737D02*
X167473954Y-40766268D01*
X167671983Y-41244351D01*
X167873001Y-41545196D01*
X167873000Y-44493513D01*
X167767881Y-44525401D01*
X167398371Y-44722907D01*
X167305652Y-44799000D01*
X167074494Y-44988707D01*
X167007888Y-45069867D01*
X164954756Y-47123000D01*
X154554544Y-47123000D01*
X154627000Y-46758737D01*
X154627000Y-46241263D01*
X154526046Y-45733732D01*
X154328017Y-45255649D01*
X154127000Y-44954806D01*
X154127000Y-41545194D01*
X154328017Y-41244351D01*
X154526046Y-40766268D01*
X154627000Y-40258737D01*
X154627000Y-39827000D01*
X167373000Y-39827000D01*
X167373000Y-40258737D01*
M02*
